<svg preserveAspectRatio="none" width="100%" height="100%" overflow="visible" style="display: block;" viewBox="0 0 16 16" fill="none" xmlns="http://www.w3.org/2000/svg">
<g id="document-code">
<path id="Vector" d="M10.6667 15.1667H5.33333C2.9 15.1667 1.5 13.7667 1.5 11.3333V4.66667C1.5 2.23333 2.9 0.833333 5.33333 0.833333H10.6667C13.1 0.833333 14.5 2.23333 14.5 4.66667V11.3333C14.5 13.7667 13.1 15.1667 10.6667 15.1667ZM5.33333 1.83333C3.42667 1.83333 2.5 2.76 2.5 4.66667V11.3333C2.5 13.24 3.42667 14.1667 5.33333 14.1667H10.6667C12.5733 14.1667 13.5 13.24 13.5 11.3333V4.66667C13.5 2.76 12.5733 1.83333 10.6667 1.83333H5.33333Z" fill="var(--fill-0, #B0B4BD)"/>
<path id="Vector_2" d="M12.3333 6.16667H11C9.98667 6.16667 9.16667 5.34667 9.16667 4.33333V3C9.16667 2.72667 9.39333 2.5 9.66667 2.5C9.94 2.5 10.1667 2.72667 10.1667 3V4.33333C10.1667 4.79333 10.54 5.16667 11 5.16667H12.3333C12.6067 5.16667 12.8333 5.39333 12.8333 5.66667C12.8333 5.94 12.6067 6.16667 12.3333 6.16667Z" fill="var(--fill-0, #B0B4BD)"/>
<path id="Vector_3" d="M6.66663 11.8333C6.53996 11.8333 6.41329 11.7867 6.31329 11.6867L4.97996 10.3533C4.78663 10.16 4.78663 9.83996 4.97996 9.64663L6.31329 8.31329C6.50663 8.11996 6.82663 8.11996 7.01996 8.31329C7.21329 8.50663 7.21329 8.82667 7.01996 9.02L6.03996 9.99998L7.01996 10.98C7.21329 11.1733 7.21329 11.4933 7.01996 11.6867C6.91996 11.7867 6.79329 11.8333 6.66663 11.8333Z" fill="var(--fill-0, #B0B4BD)"/>
<path id="Vector_4" d="M9.33329 11.8333C9.20663 11.8333 9.07996 11.7867 8.97996 11.6867C8.78663 11.4933 8.78663 11.1733 8.97996 10.98L9.95996 9.99998L8.97996 9.02C8.78663 8.82667 8.78663 8.50663 8.97996 8.31329C9.17329 8.11996 9.49329 8.11996 9.68663 8.31329L11.02 9.64663C11.2133 9.83996 11.2133 10.16 11.02 10.3533L9.68663 11.6867C9.58663 11.7867 9.45996 11.8333 9.33329 11.8333Z" fill="var(--fill-0, #B0B4BD)"/>
<g id="Vector_5" opacity="0">
</g>
</g>
</svg>
