<svg preserveAspectRatio="none" width="100%" height="100%" overflow="visible" style="display: block;" viewBox="0 0 16 16" fill="none" xmlns="http://www.w3.org/2000/svg">
<g id="personalcard">
<path id="Vector" d="M11.3333 14.5H4.66667C1.72667 14.5 0.833333 13.6067 0.833333 10.6667V5.33333C0.833333 2.39333 1.72667 1.5 4.66667 1.5H11.3333C14.2733 1.5 15.1667 2.39333 15.1667 5.33333V10.6667C15.1667 13.6067 14.2733 14.5 11.3333 14.5ZM4.66667 2.5C2.28 2.5 1.83333 2.95333 1.83333 5.33333V10.6667C1.83333 13.0467 2.28 13.5 4.66667 13.5H11.3333C13.72 13.5 14.1667 13.0467 14.1667 10.6667V5.33333C14.1667 2.95333 13.72 2.5 11.3333 2.5H4.66667Z" fill="var(--fill-0, #B0B4BD)"/>
<path id="Vector_2" d="M12.6667 5.83333H9.33333C9.06 5.83333 8.83333 5.60667 8.83333 5.33333C8.83333 5.06 9.06 4.83333 9.33333 4.83333H12.6667C12.94 4.83333 13.1667 5.06 13.1667 5.33333C13.1667 5.60667 12.94 5.83333 12.6667 5.83333Z" fill="var(--fill-0, #B0B4BD)"/>
<path id="Vector_3" d="M12.6667 8.5H10C9.72667 8.5 9.5 8.27333 9.5 8C9.5 7.72667 9.72667 7.5 10 7.5H12.6667C12.94 7.5 13.1667 7.72667 13.1667 8C13.1667 8.27333 12.94 8.5 12.6667 8.5Z" fill="var(--fill-0, #B0B4BD)"/>
<path id="Vector_4" d="M12.6667 11.1667H11.3333C11.06 11.1667 10.8333 10.94 10.8333 10.6667C10.8333 10.3933 11.06 10.1667 11.3333 10.1667H12.6667C12.94 10.1667 13.1667 10.3933 13.1667 10.6667C13.1667 10.94 12.94 11.1667 12.6667 11.1667Z" fill="var(--fill-0, #B0B4BD)"/>
<path id="Vector_5" d="M5.66667 8.02667C4.72667 8.02667 3.96 7.26 3.96 6.32C3.96 5.38 4.72667 4.61333 5.66667 4.61333C6.60667 4.61333 7.37333 5.38 7.37333 6.32C7.37333 7.26 6.60667 8.02667 5.66667 8.02667ZM5.66667 5.61333C5.28 5.61333 4.96 5.93333 4.96 6.32C4.96 6.70667 5.28 7.02667 5.66667 7.02667C6.05333 7.02667 6.37333 6.70667 6.37333 6.32C6.37333 5.93333 6.05333 5.61333 5.66667 5.61333Z" fill="var(--fill-0, #B0B4BD)"/>
<path id="Vector_6" d="M8 11.3867C7.74667 11.3867 7.52667 11.1933 7.5 10.9333C7.42667 10.2133 6.84667 9.63333 6.12 9.56667C5.81333 9.54 5.50667 9.54 5.2 9.56667C4.47333 9.63333 3.89333 10.2067 3.82 10.9333C3.79333 11.2067 3.54667 11.4133 3.27333 11.38C3 11.3533 2.8 11.1067 2.82667 10.8333C2.94667 9.63333 3.9 8.68 5.10667 8.57333C5.47333 8.54 5.84667 8.54 6.21333 8.57333C7.41333 8.68667 8.37333 9.64 8.49333 10.8333C8.52 11.1067 8.32 11.3533 8.04667 11.38C8.03333 11.3867 8.01333 11.3867 8 11.3867Z" fill="var(--fill-0, #B0B4BD)"/>
<g id="Vector_7" opacity="0">
</g>
</g>
</svg>
