<svg preserveAspectRatio="none" width="100%" height="100%" overflow="visible" style="display: block;" viewBox="0 0 16 16" fill="none" xmlns="http://www.w3.org/2000/svg">
<g id="document-filter">
<path id="Vector" d="M4.72001 10.7333C4.48001 10.7333 4.24002 10.6733 4.02002 10.5467C3.57335 10.2933 3.30668 9.84 3.30668 9.33333V6.95333C3.30668 6.78 3.19334 6.48667 3.05334 6.32001L1.37333 4.55332C1.06 4.24666 0.833333 3.71333 0.833333 3.30666V2.27334C0.833333 1.46667 1.44665 0.82666 2.23332 0.82666H8.16667C8.94 0.82666 9.56665 1.45333 9.56665 2.22666V3.21334C9.56665 3.73334 9.26668 4.30666 8.97335 4.6L7.02002 6.32666C6.86669 6.45333 6.73999 6.76001 6.73999 6.98667V8.92C6.73999 9.38 6.46001 9.89334 6.09334 10.1133L5.47998 10.5133C5.23998 10.66 4.98001 10.7333 4.72001 10.7333ZM2.23332 1.83333C2.00665 1.83333 1.83333 2.02668 1.83333 2.28001V3.31333C1.83333 3.42667 1.94668 3.71334 2.09334 3.86001L3.81331 5.66667C4.06665 5.98 4.31331 6.49333 4.31331 6.95333V9.33333C4.31331 9.53333 4.44002 9.63334 4.52002 9.67334C4.62669 9.73334 4.79999 9.76667 4.94666 9.67334L5.56665 9.27334C5.64665 9.22667 5.73999 9.04001 5.73999 8.92668V6.99333C5.73999 6.46666 5.99999 5.88666 6.36666 5.57332L8.28666 3.87333C8.40666 3.75333 8.56665 3.42667 8.56665 3.21334V2.22666C8.56665 2.00666 8.38667 1.82666 8.16667 1.82666H2.23332V1.83333Z" fill="var(--fill-0, #B0B4BD)"/>
<path id="Vector_2" d="M10 15.1667H6C2.38 15.1667 0.833333 13.62 0.833333 9.99999V7.99999C0.833333 7.72666 1.06 7.49999 1.33333 7.49999C1.60667 7.49999 1.83333 7.72666 1.83333 7.99999V9.99999C1.83333 13.0733 2.92667 14.1667 6 14.1667H10C13.0733 14.1667 14.1667 13.0733 14.1667 9.99999V5.99999C14.1667 4.06666 13.7133 2.94665 12.6933 2.36665C12.5867 2.30665 12.2333 2.14667 11.22 1.98667C10.9467 1.94667 10.76 1.68666 10.8067 1.41332C10.8533 1.13999 11.1133 0.953326 11.38 0.999993C12.2533 1.13999 12.8467 1.29999 13.1867 1.49332C14.5334 2.25999 15.1667 3.69333 15.1667 5.99999V9.99999C15.1667 13.62 13.62 15.1667 10 15.1667Z" fill="var(--fill-0, #B0B4BD)"/>
<path id="Vector_3" d="M12 9.16667H8.66667C8.39333 9.16667 8.16667 8.94 8.16667 8.66667C8.16667 8.39333 8.39333 8.16667 8.66667 8.16667H12C12.2733 8.16667 12.5 8.39333 12.5 8.66667C12.5 8.94 12.2733 9.16667 12 9.16667Z" fill="var(--fill-0, #B0B4BD)"/>
<path id="Vector_4" d="M12 11.8333H7.33333C7.06 11.8333 6.83333 11.6067 6.83333 11.3333C6.83333 11.06 7.06 10.8333 7.33333 10.8333H12C12.2733 10.8333 12.5 11.06 12.5 11.3333C12.5 11.6067 12.2733 11.8333 12 11.8333Z" fill="var(--fill-0, #B0B4BD)"/>
<g id="Vector_5" opacity="0">
</g>
</g>
</svg>
