<svg viewBox="0 0 20 20" fill="none" xmlns="http://www.w3.org/2000/svg">
  <g id="mouse-circle">
    <path d="M13.6423 18.9751C13.6339 18.9751 13.6339 18.9751 13.6256 18.9751C12.7839 18.9668 12.0839 18.4501 11.8339 17.6418L10.2922 12.6834C10.0839 12.0001 10.2589 11.2668 10.7672 10.7751C11.2672 10.2834 11.9923 10.1001 12.6589 10.3084L17.6256 11.8501C18.4256 12.1001 18.9506 12.8001 18.9589 13.6418C18.9672 14.4751 18.4589 15.1835 17.6589 15.4501L16.3006 15.9084C16.1089 15.9751 15.9589 16.1168 15.9006 16.3085L15.4339 17.6751C15.1756 18.4668 14.4756 18.9751 13.6423 18.9751ZM12.0923 11.4751C11.8673 11.4751 11.7173 11.6001 11.6506 11.6584C11.4756 11.8334 11.4173 12.0751 11.4923 12.3168L13.0339 17.2751C13.1672 17.7001 13.5339 17.7168 13.6506 17.7251C13.7672 17.7251 14.1256 17.6918 14.2589 17.2834L14.7256 15.9168C14.9089 15.3585 15.3589 14.9168 15.9172 14.7251L17.2756 14.2668C17.6923 14.1334 17.7173 13.7668 17.7173 13.6585C17.7173 13.5501 17.6839 13.1835 17.2673 13.0501L12.3006 11.5084C12.2173 11.4834 12.1506 11.4751 12.0923 11.4751Z" fill="#3BF7BF"/>
    <path d="M9.99959 18.9582C5.05793 18.9582 1.04126 14.9416 1.04126 9.9999C1.04126 5.05823 5.05793 1.04156 9.99959 1.04156C14.9413 1.04156 18.9579 5.05823 18.9579 9.9999C18.9579 10.3416 18.6746 10.6249 18.3329 10.6249C17.9913 10.6249 17.7079 10.3416 17.7079 9.9999C17.7079 5.7499 14.2496 2.29156 9.99959 2.29156C5.74959 2.29156 2.29126 5.7499 2.29126 9.9999C2.29126 14.2499 5.74959 17.7082 9.99959 17.7082C10.3413 17.7082 10.6246 17.9916 10.6246 18.3332C10.6246 18.6749 10.3413 18.9582 9.99959 18.9582Z" fill="#3BF7BF"/>
  </g>
</svg>
