<svg preserveAspectRatio="none" width="100%" height="100%" overflow="visible" style="display: block;" viewBox="0 0 22 22" fill="none" xmlns="http://www.w3.org/2000/svg">
<g id="microscope">
<g id="Vector" opacity="0">
</g>
<path id="Vector_2" d="M13.6033 9.99163L18.7917 6.51747C19.3142 6.16913 19.4517 5.45413 19.1033 4.9408L17.435 2.45663C17.0867 1.93413 16.3717 1.79663 15.8583 2.14497L10.67 5.61913L13.6033 9.99163Z" fill="var(--fill-0, #FF61FF)"/>
<path id="Vector_3" d="M13.31 9.55164L11.6967 10.6333L9.24916 12.2741L8.92833 12.485L8.78166 12.265L6.72833 9.20331L6.58166 8.98331L10.9633 6.04998L13.31 9.55164Z" fill="var(--fill-0, #FF61FF)"/>
<path id="Vector_4" d="M5.16998 14.685L8.79081 12.265L6.73748 9.20337L3.11664 11.6234C2.69498 11.9075 2.58498 12.4759 2.86914 12.8975L3.90498 14.4375C4.17998 14.8592 4.74831 14.9692 5.16998 14.685Z" fill="var(--fill-0, #FF61FF)"/>
<path id="Vector_5" d="M15.18 19.9925C15.0883 20.0291 14.9875 20.0566 14.8959 20.0566C14.63 20.0566 14.3825 19.9008 14.2634 19.6441L10.8442 12.0908L7.37918 19.6533C7.26002 19.9008 7.01252 20.0566 6.74668 20.0566C6.65502 20.0566 6.55418 20.0291 6.46252 19.9925C6.12335 19.8275 5.96752 19.4241 6.12335 19.0758L9.24918 12.2741L11.6967 10.6333L15.5192 19.085C15.675 19.4241 15.5192 19.8366 15.18 19.9925Z" fill="var(--fill-0, #FF61FF)"/>
</g>
</svg>
