<svg preserveAspectRatio="none" width="100%" height="100%" overflow="visible" style="display: block;" viewBox="0 0 15 15" fill="none" xmlns="http://www.w3.org/2000/svg">
<g id="filter">
<path id="Vector" d="M12.875 2.5625V3.9375C12.875 4.4375 12.5625 5.0625 12.25 5.375L9.5625 7.75C9.1875 8.0625 8.9375 8.6875 8.9375 9.1875V11.875C8.9375 12.25 8.6875 12.75 8.375 12.9375L7.5 13.5C6.6875 14 5.5625 13.4375 5.5625 12.4375V9.125C5.5625 8.6875 5.3125 8.125 5.0625 7.8125L4.76875 7.50625C4.575 7.3 4.5375 6.9875 4.69375 6.74375L7.89375 1.60625C8.00625 1.425 8.20625 1.3125 8.425 1.3125H11.625C12.3125 1.3125 12.875 1.875 12.875 2.5625Z" fill="#4A4F58"/>
<path id="Vector_2" d="M6.46875 2.26875L4.25 5.825C4.0375 6.16875 3.55 6.21875 3.26875 5.925L2.6875 5.3125C2.375 5 2.125 4.4375 2.125 4.0625V2.625C2.125 1.875 2.6875 1.3125 3.375 1.3125H5.9375C6.425 1.3125 6.725 1.85 6.46875 2.26875Z" fill="#4A4F58"/>
<g id="Vector_3" opacity="0">
</g>
</g>
</svg>
