<svg viewBox="0 0 21.0777 21.0776" fill="none" xmlns="http://www.w3.org/2000/svg">
  <path d="M18.3222 0.022104C19.936 -0.188951 21.2665 1.1408 21.0556 2.75453C20.7471 5.11346 19.8992 9.12093 17.5039 11.7037C16.7419 12.5253 15.8205 13.2832 14.874 13.9577L15.1513 15.8961C15.2292 16.4413 15.0456 16.992 14.6562 17.3815L11.4746 20.5631C10.455 21.5827 8.70926 21.0009 8.50486 19.5739L8.08006 16.6032L8.08494 16.6022C7.81322 16.471 7.56024 16.2952 7.3408 16.0758L5.00095 13.736C4.78149 13.5163 4.60574 13.2628 4.47459 12.9909L4.47361 12.9977L1.50388 12.5729C0.0764895 12.3688 -0.505016 10.6228 0.514626 9.60316L3.69627 6.42054C4.08565 6.03136 4.63562 5.84867 5.18064 5.9264L7.11814 6.20277C7.79269 5.25617 8.55234 4.33495 9.374 3.57289C11.9567 1.17785 15.9633 0.330658 18.3222 0.022104ZM6.17088 18.0885C6.46377 17.7958 6.93857 17.7957 7.23142 18.0885C7.52427 18.3814 7.52418 18.8562 7.23142 19.1491L5.81736 20.5631C5.52445 20.8558 5.04965 20.856 4.75681 20.5631C4.46401 20.2703 4.46411 19.7955 4.75681 19.5026L6.17088 18.0885ZM4.04978 15.9664C4.3426 15.6739 4.81751 15.6739 5.11033 15.9664C5.40318 16.2593 5.40309 16.7351 5.11033 17.028L2.2822 19.8561C1.98937 20.1489 1.51456 20.1488 1.22166 19.8561C0.928772 19.5632 0.928789 19.0884 1.22166 18.7955L4.04978 15.9664ZM1.92869 13.8453C2.22158 13.5528 2.69643 13.5526 2.98924 13.8453C3.28203 14.1381 3.28184 14.613 2.98924 14.9059L1.57517 16.32C1.28228 16.6128 0.807519 16.6128 0.514626 16.32C0.221803 16.0271 0.221756 15.5523 0.514626 15.2594L1.92869 13.8453ZM15.1865 5.89027C14.4056 5.10944 13.1394 5.10965 12.3584 5.89027C11.5773 6.67132 11.5773 7.93832 12.3584 8.71937C13.1394 9.49999 14.4056 9.5002 15.1865 8.71937C15.9675 7.93832 15.9675 6.67132 15.1865 5.89027Z" fill="#5DFAC9"/>
</svg>
