<svg preserveAspectRatio="none" width="100%" height="100%" overflow="visible" style="display: block;" viewBox="0 0 16 12" fill="none" xmlns="http://www.w3.org/2000/svg">
<path id="Vector" fill-rule="evenodd" clip-rule="evenodd" d="M10.6496 3.61418C10.2926 3.82856 9.93839 4.04624 9.58523 4.26686C8.92526 4.67943 8.26032 5.11207 7.58203 5.51061C6.96191 5.87466 6.37928 6.28782 5.76046 6.65342C5.09359 7.04787 4.27179 7.46415 3.45 7.2447C2.28625 6.93347 1.37741 6.80348 0.524155 6.50005C-0.32953 6.197 -0.0246427 5.67295 0.615298 5.39758C1.25545 5.12182 8.32647 2.36497 8.32647 2.36497L12.7459 0.71117C13.1297 0.575724 13.5128 0.439694 13.8957 0.302495C14.1538 0.210119 14.4074 0.10644 14.6787 0.0505078C14.9859 -0.0128299 15.3527 -0.0422576 15.6304 0.120277C16.0279 0.35258 16.0275 0.858893 15.9767 1.23502C15.8782 1.96799 15.7567 2.69881 15.6367 3.42924C15.4776 4.39489 15.3132 5.35997 15.1469 6.32465C14.9993 7.18098 14.8498 8.03691 14.6992 8.89266C14.5906 9.51025 14.5391 10.1469 14.3941 10.7577C14.3285 11.0339 14.2284 11.312 14.0545 11.5491C13.3255 12.5425 11.959 11.6561 11.2116 11.1594C10.5956 10.7499 7.9856 9.22299 7.33919 8.81353C7.10843 8.66717 6.92787 8.41168 6.93045 8.15307C6.9339 7.79662 7.21379 7.52709 7.48571 7.29927C7.81947 7.01942 8.16444 6.74989 8.49583 6.46731C8.99334 6.04304 9.49064 5.61858 9.98837 5.19412C10.4154 4.82968 10.8427 4.46544 11.2695 4.1012C11.5055 3.90008 11.7294 3.69136 11.9384 3.46646C12.0013 3.39884 12.045 3.34505 12.0521 3.25618C12.0571 3.19284 12.0429 3.13028 11.9901 3.08507C11.7938 2.91844 11.5503 3.08371 11.3743 3.18622C11.1316 3.32751 10.8905 3.47016 10.6501 3.61457L10.6496 3.61418Z" fill="var(--fill-0, #B0B4BD)"/>
</svg>
