<svg viewBox="0 0 13 13" fill="none" xmlns="http://www.w3.org/2000/svg">
  <circle cx="6.5" cy="6.5" r="6.5" fill="#22C55E"/>
  <path d="M8.91516 8.84886C8.17061 8.84886 7.48368 8.49875 7.03607 7.88273C6.9297 7.73648 6.96072 7.52818 7.10697 7.41739C7.25322 7.30659 7.46152 7.34205 7.57232 7.4883C7.89584 7.92705 8.38334 8.17966 8.91516 8.17966C9.84141 8.17966 10.5992 7.42625 10.5992 6.49557C10.5992 5.56489 9.84584 4.81148 8.91516 4.81148C8.28584 4.81148 7.69197 5.1483 7.36845 5.68455L6.19402 7.63898C5.75084 8.37909 4.93982 8.83557 4.08004 8.83557C2.78595 8.83557 1.73118 7.7808 1.73118 6.4867C1.73118 5.19261 2.78595 4.13784 4.08004 4.13784C4.82459 4.13784 5.51152 4.48795 5.95913 5.10398C6.0655 5.25023 6.03447 5.45852 5.88822 5.56932C5.73754 5.68011 5.53368 5.64466 5.42288 5.49841C5.10379 5.06852 4.61629 4.81591 4.08447 4.81591C3.15822 4.81591 2.40038 5.56932 2.40038 6.5C2.40038 7.43068 3.15379 8.18409 4.08447 8.18409C4.71379 8.18409 5.30766 7.84727 5.63118 7.31102L6.80561 5.35659C7.24879 4.61648 8.05982 4.16 8.91959 4.16C10.2137 4.16 11.2685 5.21477 11.2685 6.50886C11.2685 7.80296 10.2092 8.84886 8.91516 8.84886Z" fill="white" stroke="white" stroke-width="0.3"/>
</svg>
