<svg preserveAspectRatio="none" width="100%" height="100%" overflow="visible" style="display: block;" viewBox="0 0 19 19" fill="none" xmlns="http://www.w3.org/2000/svg">
<g id="notification-bing">
<path id="Vector" d="M9.5 8.32833C9.17542 8.32833 8.90625 8.05917 8.90625 7.73458V5.09833C8.90625 4.77375 9.17542 4.50458 9.5 4.50458C9.82458 4.50458 10.0938 4.77375 10.0938 5.09833V7.73458C10.0938 8.06708 9.82458 8.32833 9.5 8.32833Z" fill="var(--fill-0, #B0B4BD)"/>
<path id="Vector_2" d="M9.51583 16.1104C7.47333 16.1104 5.43875 15.7858 3.49917 15.1367C2.77875 14.8992 2.2325 14.3846 1.995 13.7354C1.7575 13.0863 1.83667 12.3421 2.22458 11.6929L3.23 10.0146C3.45167 9.6425 3.64958 8.94583 3.64958 8.51042V6.84792C3.64958 3.61 6.27792 0.981667 9.51583 0.981667C12.7538 0.981667 15.3821 3.61 15.3821 6.84792V8.51042C15.3821 8.93792 15.58 9.6425 15.8017 10.0146L16.8071 11.6929C17.1792 12.3104 17.2425 13.0467 16.9971 13.7196C16.7517 14.3925 16.2133 14.9071 15.5325 15.1367C13.5929 15.7938 11.5583 16.1104 9.51583 16.1104ZM9.51583 2.17708C6.935 2.17708 4.83708 4.275 4.83708 6.85583V8.51833C4.83708 9.15958 4.58375 10.0858 4.25125 10.6321L3.24583 12.3183C3.04 12.6588 2.9925 13.0229 3.11125 13.3396C3.23 13.6563 3.49917 13.8937 3.87917 14.0204C7.52083 15.2317 11.5267 15.2317 15.1683 14.0204C15.5087 13.9096 15.77 13.6563 15.8887 13.3238C16.0154 12.9913 15.9758 12.6271 15.7938 12.3183L14.7883 10.64C14.4558 10.0938 14.2025 9.1675 14.2025 8.52625V6.86375C14.1946 4.275 12.0967 2.17708 9.51583 2.17708Z" fill="var(--fill-0, #B0B4BD)"/>
<path id="Vector_3" d="M9.5 18.1292C8.65292 18.1292 7.82167 17.7808 7.22 17.1792C6.61833 16.5775 6.27 15.7462 6.27 14.8992H7.4575C7.4575 15.4375 7.67917 15.96 8.05917 16.34C8.43917 16.72 8.96167 16.9417 9.5 16.9417C10.6242 16.9417 11.5425 16.0233 11.5425 14.8992H12.73C12.73 16.6804 11.2813 18.1292 9.5 18.1292Z" fill="var(--fill-0, #B0B4BD)"/>
<g id="Vector_4" opacity="0">
</g>
</g>
</svg>
