<svg xmlns="http://www.w3.org/2000/svg" width="18" height="18" viewBox="0 0 18 18" fill="none">
  <path d="M15.9751 5.685H11.7901C11.4976 5.685 11.2651 5.4525 11.2651 5.16C11.2651 4.8675 11.4976 4.635 11.7901 4.635H15.9751C16.2676 4.635 16.5001 4.8675 16.5001 5.16C16.5001 5.4525 16.2676 5.685 15.9751 5.685Z" fill="#6E7480"/>
  <path d="M4.815 5.685H2.025C1.7325 5.685 1.5 5.4525 1.5 5.16C1.5 4.8675 1.7325 4.635 2.025 4.635H4.815C5.1075 4.635 5.34 4.8675 5.34 5.16C5.34 5.4525 5.1 5.685 4.815 5.685Z" fill="#6E7480"/>
  <path d="M7.07813 8C8.45884 8 9.57812 6.88071 9.57812 5.5C9.57812 4.11929 8.45884 3 7.07813 3C5.69741 3 4.57812 4.11929 4.57812 5.5C4.57812 6.88071 5.69741 8 7.07813 8Z" fill="#6E7480"/>
  <path d="M15.9749 13.3575H13.1849C12.8924 13.3575 12.6599 13.125 12.6599 12.8325C12.6599 12.54 12.8924 12.3075 13.1849 12.3075H15.9749C16.2674 12.3075 16.4999 12.54 16.4999 12.8325C16.4999 13.125 16.2674 13.3575 15.9749 13.3575Z" fill="#6E7480"/>
  <path d="M6.21 13.3575H2.025C1.7325 13.3575 1.5 13.125 1.5 12.8325C1.5 12.54 1.7325 12.3075 2.025 12.3075H6.21C6.5025 12.3075 6.735 12.54 6.735 12.8325C6.735 13.125 6.495 13.3575 6.21 13.3575Z" fill="#6E7480"/>
  <path d="M11.0781 15C12.4588 15 13.5781 13.8807 13.5781 12.5C13.5781 11.1193 12.4588 10 11.0781 10C9.69741 10 8.57812 11.1193 8.57812 12.5C8.57812 13.8807 9.69741 15 11.0781 15Z" fill="#6E7480"/>
</svg>
