<svg width="334" height="268" viewBox="0 0 334 268" fill="none" xmlns="http://www.w3.org/2000/svg">

<mask id="mask0_521_4382" style="mask-type:luminance" maskUnits="userSpaceOnUse" x="0" y="0" width="334" height="222">
<path d="M274 0H60C26.8629 0 0 26.8629 0 60V161.807C0 194.944 26.8629 221.807 60 221.807H274C307.137 221.807 334 194.944 334 161.807V60C334 26.8629 307.137 0 274 0Z" fill="white"></path>
</mask>
<g mask="url(#mask0_521_4382)">
<g opacity="0.1">
<path d="M-41.0953 53.0144C-41.0953 53.0052 -41.0842 53.0005 -41.0776 53.007L-40.4852 53.5885C-39.8751 54.1873 -38.8553 54.4224 -37.9424 54.5422C-37.025 54.6664 -37.0294 53.9478 -37.742 53.2291C-38.4545 52.5105 -38.6594 52.6302 -39.2695 52.5149C-39.8796 52.3907 -39.982 51.6765 -41.6075 51.6765C-43.2329 51.6765 -43.0325 50.7227 -43.2374 50.2392C-43.4422 49.7601 -41.6832 48.8285 -41.2735 48.9438C-40.0459 49.316 -38.7999 48.3805 -37.5905 47.953C-37.0415 47.7589 -36.5489 47.6258 -36.4282 47.7194C-36.121 47.959 -34.5979 47.4843 -33.8854 47.2359C-33.8103 47.2107 -33.7387 47.1735 -33.6705 47.1272C-32.8983 46.6027 -31.9488 45.9272 -31.3425 46.637C-30.8349 47.2359 -29.7126 46.637 -29.4098 46.637C-28.0684 46.637 -26.7378 46.9268 -25.4108 46.7308C-25.2441 46.7062 -25.089 46.6832 -24.9565 46.6636C-24.1415 46.5439 -21.7812 47.5908 -20.9663 47.8304C-20.1513 48.0699 -15.8806 47.0185 -15.4753 47.0185C-15.0701 47.0185 -13.645 49.139 -12.3224 48.7797C-10.9997 48.4204 -10.3896 49.0192 -10.0868 49.1346C-9.78396 49.2543 -9.47668 49.2543 -8.96454 49.973C-8.45686 50.6917 -7.94918 50.0883 -7.23665 49.6137C-7.04298 49.4826 -6.90961 49.3516 -6.81804 49.2303C-6.61228 48.9579 -6.35191 48.6036 -6.01644 48.5401C-5.40633 48.4204 -5.00108 48.7752 -3.27318 48.895C-1.54529 49.0104 -1.95054 48.5357 -0.730332 48.0566C0.489881 47.5775 1.71455 48.651 2.1198 48.5313C2.52505 48.4115 3.03273 47.4577 3.34001 47.9279C3.79063 48.637 4.74147 48.7881 5.45789 48.3492C5.63222 48.2424 5.78454 48.1719 5.88287 48.1719C6.28812 48.1719 8.61276 48.3893 9.32529 48.274C10.0334 48.1542 11.6811 48.407 12.2868 49.0015C12.8969 49.6004 14.4244 49.4762 15.2393 50.075C16.0498 50.6783 16.8648 49.5959 16.4551 49.3608C15.3903 48.7267 14.6648 47.6564 13.9595 46.6373C13.6524 46.1934 13.3792 45.7904 13.3021 45.6522C13.0973 45.2929 12.7944 45.2929 12.3892 46.2511C11.9795 47.2049 10.4609 47.2093 8.72854 47.3335C7.00065 47.4577 8.11844 46.3753 6.18569 46.26C4.25294 46.1402 4.96548 45.3062 5.57558 45.3018C6.18569 45.3018 6.59094 43.8644 6.79134 43.026C6.99174 42.1876 7.70428 42.3074 9.1338 42.4271C10.5544 42.5469 10.9641 42.1876 12.3847 42.4271C13.8098 42.6667 13.7074 41.7085 15.128 41.8238C16.553 41.9436 15.8405 42.1832 16.6555 42.782C17.4704 43.3765 17.9781 43.2567 19.1004 43.8556C20.2181 44.4545 19.8129 44.4545 20.3206 44.5742C20.8282 44.694 22.5561 44.3347 23.5715 44.2105C24.5869 44.0907 25.4018 43.9709 25.9095 44.6896C26.4216 45.4082 26.3192 46.2422 27.0317 46.8411C27.7398 47.4444 26.622 44.6896 26.6176 43.7314C26.6176 42.7732 28.0426 43.6116 28.9556 43.6072C29.873 43.6072 30.8839 43.2478 31.0887 43.7269C31.2936 44.206 29.7661 44.9291 30.6835 46.0071C31.6009 47.0806 32.211 47.44 33.0215 47.44C33.8364 47.44 35.6668 47.6751 34.8518 48.9882C34.0413 50.3057 31.9081 50.1859 31.1956 50.1904C30.4831 50.1904 29.2629 50.6739 29.5701 51.3926C29.8774 52.1112 31.5029 51.7475 32.6207 51.7475C33.7429 51.7475 37.1987 52.1023 38.1116 51.743C39.029 51.3837 38.8242 49.9464 37.8088 49.5871C36.789 49.2277 37.6039 48.5135 38.6193 48.7486C39.6391 48.9882 40.6545 48.3893 40.4496 48.7486C40.2492 49.108 40.5521 49.9464 40.5521 50.9046C40.5521 51.8628 40.8593 52.4617 41.5674 52.2221C42.28 51.9826 42.1508 51.1929 42.8633 51.0732C43.5759 50.9534 43.3933 49.5871 42.988 48.5091C42.5828 47.4355 42.2755 46.8322 42.3779 46.2333C42.4803 45.6345 43.5981 45.5147 44.2082 46.1091C45.2895 47.1705 46.5012 48.2067 47.1951 49.5537C47.2197 49.6014 47.2425 49.6495 47.2632 49.698C47.6729 50.6562 47.7709 50.4166 48.5859 49.8177C49.4008 49.2189 49.6012 49.3386 50.3182 49.9375C51.0307 50.5364 50.5186 51.7341 50.5186 52.0935C50.5186 52.4528 51.5384 52.0935 51.7388 51.3748C51.9392 50.6562 52.7542 50.6562 53.2663 50.4166C54.2311 49.953 53.0501 48.526 51.9805 48.4854C51.7057 48.475 51.4172 48.4785 51.1287 48.5046C49.8061 48.62 49.4008 48.3849 48.3855 47.5464C47.3657 46.7124 47.9758 46.1091 47.4681 45.2751C46.9604 44.4367 49.0935 43.9532 50.4162 43.2345C51.7344 42.5159 53.057 42.9905 52.7542 44.7872C52.4514 46.5838 52.251 46.3442 53.774 45.9894C55.3015 45.6256 53.6671 44.0729 54.3796 43.9487C55.0922 43.829 56.9225 43.4696 57.5326 43.5894C58.1427 43.7092 61.4961 43.2256 62.311 43.2256C63.126 43.2256 64.4486 44.0641 65.3616 44.663C66.279 45.2618 68.7194 46.0958 69.3295 46.4507C69.9396 46.81 74.2148 47.5243 74.62 47.644C75.0253 47.7638 75.0298 49.2011 75.435 50.3989C75.8447 51.5966 76.9625 50.7582 77.3677 50.7538C77.7775 50.7538 79.2025 51.5922 79.6122 52.1866C79.8025 52.4678 80.5759 52.7216 81.343 52.9118C82.1419 53.1098 82.5831 54.0681 82.0527 54.6975C81.7498 55.0568 81.0373 55.2964 80.4272 55.7755C79.8126 56.259 79.1045 55.6557 78.2851 55.0568C77.4746 54.4579 76.0451 54.103 75.7423 54.3382C75.4395 54.5821 75.6443 55.0568 75.8492 55.4161C76.0496 55.7755 77.3722 56.2546 78.1872 56.9688C79.0021 57.6874 78.8017 58.4061 78.8997 59.3599C79.0021 60.3181 78.0892 59.0005 77.0694 58.761C76.1533 58.5498 75.1914 59.6404 74.2516 59.6123C74.1668 59.6097 74.0882 59.6083 74.0188 59.6083C73.4087 59.6083 74.0189 59.6083 72.8966 58.6501C71.7788 57.6963 71.9837 59.2534 71.3736 58.7698C70.7635 58.2907 70.1534 57.5765 69.8461 57.8161C69.5388 58.0556 68.5234 56.7381 67.9133 56.8579C67.3032 56.9777 64.8628 56.4986 64.2527 56.7381C63.6426 56.9777 63.1349 56.9777 62.6272 57.2172C62.1151 57.4568 61.9147 55.5403 62.2175 54.9459C62.5203 54.347 63.2329 54.2273 64.5555 54.5866C65.8782 54.9415 65.9806 54.5866 66.2834 53.9788C66.5907 53.3844 66.8935 52.7855 68.3141 52.302C69.7392 51.8229 68.2162 51.468 67.8064 51.2284C67.3967 50.9889 66.8891 50.5098 66.5862 51.2284C66.1206 52.3174 64.8818 52.7951 63.7038 52.6731C63.6805 52.6707 63.6572 52.6682 63.6337 52.6657C62.5159 52.546 63.3264 52.0669 63.8341 51.8317C64.3418 51.5922 64.9519 50.1504 64.4442 49.7956C63.9365 49.4362 63.7317 49.1967 62.8187 49.4362C61.9013 49.6758 62.5114 48.5978 61.9013 48.2385C61.2912 47.8791 61.4916 48.4825 61.4916 48.9571C61.4916 49.4362 60.5787 49.3209 60.5787 49.3209C60.5787 49.3209 59.1536 49.0813 58.6459 49.3209C58.1383 49.556 57.2209 50.0351 57.5282 50.3989C57.8354 50.7582 58.8508 50.7582 59.1536 51.8317C59.4609 52.9053 57.8354 53.1493 57.5326 53.2646C56.5483 53.6625 55.46 53.6648 54.4049 53.5469C54.1941 53.5234 53.9798 53.5086 53.774 53.5086C52.7542 53.5086 52.4514 53.6284 52.6562 54.1075C52.8611 54.5866 53.3687 54.3426 53.6716 54.3426C53.9744 54.3426 53.9744 54.9415 54.8918 54.7019C55.8092 54.4624 55.6043 54.103 56.4193 55.0612C57.2342 56.015 58.0492 55.8997 59.3718 56.7337C60.69 57.5721 59.167 58.5303 58.4589 58.5303C57.7464 58.5303 57.7464 57.8116 57.3411 57.093C56.9314 56.3743 55.3059 57.2172 55.3059 57.2172C55.3059 57.2172 53.9789 58.0556 53.2708 58.0556C52.5582 58.0556 52.0461 57.9359 52.9635 57.0974C53.8764 56.2634 51.8457 56.1392 51.8413 54.9459C51.8413 53.7481 51.2579 56.9821 51.2579 57.581C51.2579 58.1798 50.6255 56.8623 48.8931 57.1019C47.1653 57.3459 47.4681 58.0601 45.2325 59.7369C43.0014 61.4182 43.5848 61.0278 43.7852 62.5849C43.9945 64.142 43.4066 64.4082 44.324 64.6477C45.237 64.8873 44.9341 66.6839 45.6467 66.5641C46.3592 66.4444 46.8669 65.8455 48.2919 66.6795C49.717 67.5179 50.4295 67.753 52.1574 68.1123C53.8898 68.4672 54.727 68.2632 55.6444 68.0236C56.5618 67.7841 57.448 68.9463 57.4525 69.7848C57.4525 70.6276 58.0626 70.7474 57.9646 71.8254C57.892 72.5861 59.697 72.2238 59.2446 72.8396C59.2263 72.8645 59.205 72.8845 59.1803 72.8989C58.7751 73.1385 59.2872 74.212 59.7949 74.0967C60.3026 73.9769 61.0151 74.456 61.6252 73.8527C62.2353 73.2538 61.3179 71.4616 61.3179 70.743C61.3179 70.0243 60.7078 69.665 60.4006 68.9463C60.0933 68.2277 61.2155 68.1079 61.6163 68.8266C62.026 69.5452 62.7386 68.9463 63.4466 68.3475C64.3802 67.557 63.8422 66.0929 63.0355 65.1734C62.7037 64.7951 62.3433 64.4483 62.0216 64.2795C61.1042 63.8004 61.5094 63.6806 62.4224 63.4411C63.3398 63.2015 62.4224 62.8422 62.6272 61.5247C62.8276 60.2072 62.8276 59.3687 63.3353 59.3687C63.843 59.3687 65.6733 59.0094 67.2008 59.1292C68.7283 59.2489 69.4408 60.562 70.4562 60.6818C71.4715 60.7972 73.097 61.0367 73.4043 61.6356C73.7071 62.2389 71.6051 62.6071 72.3177 63.5653C73.0302 64.5191 73.814 64.1509 74.5221 64.5102C75.2346 64.8695 76.0451 64.6255 76.9625 63.1882C77.8799 61.7509 78.2807 61.6312 78.588 61.8707C78.8953 62.1147 80.828 64.7409 81.3401 65.3398C81.8523 65.9386 82.3421 67.6776 82.4446 68.2809C82.547 68.8754 84.4931 68.4495 84.9028 68.4495C85.308 68.4495 86.8355 69.7626 87.0359 70.4857C87.2408 71.2043 87.6505 71.4439 88.9687 71.8032C90.2958 72.1625 88.9687 73.4756 88.6659 74.1898C88.3586 74.9085 88.1582 75.1525 87.7529 75.9909C87.3477 76.8293 87.7529 75.9909 88.2606 76.3502C88.7727 76.7096 88.9731 77.1887 89.7881 76.9491C90.6031 76.7051 91.0083 76.9491 91.3111 77.6633C91.6184 78.3864 92.0281 78.9809 92.3309 79.5753C92.6382 80.1742 92.3309 81.1324 91.9257 80.5335C91.7745 80.3101 91.4957 80.22 91.2054 80.1949C90.5456 80.1378 89.7108 81.2286 89.3828 80.6533C89.178 80.294 88.7727 79.8193 88.0557 80.0544C87.3477 80.294 86.6351 80.0544 85.8202 80.1786C85.0052 80.2984 84.7024 79.6995 85.2101 79.2204C85.7178 78.7458 85.8157 76.9491 86.8355 76.226C87.8509 75.5118 87.5436 74.4338 86.8355 74.4338C86.1186 74.4338 85.8157 75.5118 85.4149 75.7514C85.0052 75.9909 83.6158 75.3077 82.9033 75.9066C82.1907 76.5055 81.0417 76.9536 81.7543 77.1887C82.4668 77.4282 80.7345 78.3909 80.1288 78.3909C79.5143 78.3909 79.7191 76.8338 79.7191 76.2305C79.7191 75.5652 78.4906 76.2876 77.8557 76.0889C77.4133 75.9504 76.9389 75.9141 76.6686 76.2349C76.0585 76.958 73.8585 76.6519 73.1504 77.3661C72.9722 77.5459 72.817 77.7974 72.6846 78.0734C72.3504 78.77 73.1845 79.4483 73.9253 79.2293C75.1455 78.87 75.0431 78.9897 76.0585 78.3953C77.0783 77.792 78.0936 77.5569 78.8062 78.6304C78.9276 78.8146 78.9985 78.9847 79.0326 79.1403C79.1975 79.8931 78.6505 80.9887 79.3139 81.3808C79.7191 81.6204 79.8215 81.1413 80.5341 80.6622C81.2466 80.1875 80.9393 81.6204 81.1486 82.0995C81.349 82.5786 82.0616 82.5786 82.4668 81.9797C82.8721 81.3808 83.1749 80.9017 83.4822 81.261C83.7895 81.6159 84.0967 82.4544 84.3996 83.2928C84.7068 84.1356 82.2664 84.3752 81.8612 84.495C81.4559 84.6148 79.5187 85.0939 79.2159 85.2181C78.9131 85.3378 77.8977 86.4158 77.0827 86.4158C76.2722 86.4158 76.3702 84.9785 76.2678 84.1445C76.1609 83.3017 75.1455 84.2643 75.0431 84.6236C74.9407 84.9829 74.0278 84.8632 73.3152 84.983C72.6027 85.1027 71.3825 85.9456 71.3825 86.8994C71.3825 87.8576 72.8164 88.8823 72.5136 89.3658C72.2108 89.8449 69.8594 89.6586 69.1469 89.4146C68.4344 89.1795 67.419 89.774 67.7263 90.2575C68.0291 90.7366 67.8287 91.4508 67.1162 91.3355C66.4036 91.2157 66.3012 92.0541 66.6085 92.653C66.9113 93.2475 65.6911 94.4452 65.3883 93.9661C65.0855 93.4915 64.4754 93.2519 64.4754 93.9661C64.4754 94.6848 65.0766 95.6785 65.6867 96.6322C66.2968 97.5904 63.9721 97.7989 63.2596 98.5176C62.5471 99.2362 60.9617 101.698 59.9463 102.177C58.9265 102.656 58.0759 104.147 58.5836 104.741C59.0957 105.34 59.7058 107.851 60.0131 108.694C60.3204 109.533 59.9107 111.919 58.9978 111.808C58.0848 111.688 58.588 110.256 57.6707 109.892C56.7577 109.533 56.2456 107.377 56.0407 105.939C55.8359 104.506 55.631 105.345 55.0209 105.819C54.4108 106.299 53.8007 104.866 53.4979 104.506C53.1906 104.147 51.6809 105.207 50.4607 105.087C49.245 104.968 48.6126 105.225 48.617 105.584C48.617 105.944 48.4166 107.017 47.2944 106.303C46.1766 105.589 45.9718 105.589 44.854 105.589C43.7362 105.589 42.7164 105.469 42.516 105.948C42.3111 106.432 41.1933 107.505 40.4808 107.745C39.7683 107.984 38.4501 109.186 39.0602 109.422C39.6703 109.661 39.6748 111.338 39.265 112.292C38.8598 113.25 38.9622 114.927 39.1671 116.604C39.3719 118.281 40.5966 119.354 41.7144 120.432C42.8366 121.51 43.2419 121.869 44.3597 120.907C45.4774 119.949 45.8827 120.552 46.19 120.667C46.4928 120.787 47.3078 120.068 47.0049 118.995C46.6977 117.917 47.4102 116.959 48.3231 117.078C49.2405 117.198 50.5587 116.719 51.2712 116.839C51.9793 116.954 52.3935 119.23 51.2712 120.188C50.1534 121.151 50.7636 122.584 50.5587 123.666C50.3583 124.74 49.4409 124.979 50.5587 124.979C51.6809 124.979 51.3737 125.219 52.0862 125.338C52.7943 125.458 53.5113 124.62 54.2238 124.496C54.9319 124.38 56.7666 126.288 56.4594 127.25C56.1565 128.209 55.8537 129.881 55.9561 131.438C56.0586 132.995 56.4638 133.115 56.6687 133.594C56.8735 134.073 57.684 135.151 58.6014 134.672C59.5143 134.193 60.4317 133.834 60.7346 133.355C61.0418 132.875 62.9746 134.189 62.7697 134.552C62.5693 134.907 63.4823 135.266 64.0924 134.907C64.7025 134.552 65.0098 133.949 65.6154 132.991C66.2255 132.033 67.2409 131.194 67.7486 131.074C68.2562 130.955 69.4764 129.517 70.287 129.757C71.1019 129.996 69.9841 131.194 69.8817 131.913C69.7837 132.627 69.8817 134.663 70.2914 134.783C70.6967 134.903 70.4963 133.35 70.9995 132.268C71.5072 131.19 72.5225 130.586 73.0347 130.586C73.5423 130.586 73.952 133.106 74.6601 132.387C75.3727 131.669 76.7933 131.784 77.1006 132.503C77.1033 132.509 77.106 132.516 77.1087 132.522C77.3692 133.135 78.2233 133.168 78.2183 132.503C78.2183 131.904 79.8438 131.301 80.8636 132.019C81.8834 132.733 81.4737 132.977 81.9814 133.097C82.4935 133.217 82.9968 131.54 83.304 131.42C83.6069 131.301 83.304 133.337 82.596 134.415C82.1935 135.03 82.4457 135.178 82.7384 135.191C83.0266 135.204 83.3258 135.273 83.5134 135.493C83.8206 135.852 84.836 135.133 85.2457 135.852C85.6554 136.566 86.3679 136.806 86.978 138.128C87.5882 139.436 88.2829 138.274 89.5031 138.035C90.7233 137.791 92.469 139.556 93.6892 141.109C94.9139 142.666 94.709 143.864 95.524 143.864C96.339 143.864 96.5438 145.177 96.5438 145.656C96.5438 146.135 94.7135 147.213 93.6981 147.457C92.6828 147.701 92.6828 148.899 94.3082 148.535C95.9381 148.176 95.2212 147.457 96.241 147.098C97.2563 146.734 98.2762 147.572 97.3632 149.01C96.4458 150.443 94.6155 150.567 96.2454 150.802C97.8709 151.046 96.958 150.567 97.8709 149.129C98.7838 147.697 98.6814 148.171 99.296 148.171C99.9061 148.171 101.224 148.531 101.736 149.005C102.249 149.484 103.567 150.199 104.382 150.793C105.197 151.396 106.212 151.152 106.822 150.913C107.428 150.673 109.16 151.627 109.77 152.585C110.385 153.548 111.912 153.663 112.62 154.022C113.333 154.377 114.455 155.815 114.558 157.012C114.66 158.21 113.444 160.725 113.342 161.324C113.244 161.919 111.618 164.075 110.091 165.516C108.568 166.958 109.485 168.631 109.588 169.349C109.686 170.068 108.572 172.699 108.88 173.297C109.182 173.896 108.474 175.214 107.864 176.052C107.254 176.891 106.853 178.448 106.448 179.162C106.038 179.881 104.716 179.641 103.5 180.005C102.28 180.364 101.665 180.728 101.665 180.728C101.665 180.728 99.532 181.926 98.3162 182.884C97.096 183.838 98.7259 185.515 98.1158 186.832C97.5102 188.15 97.007 186.97 96.4013 188.527C95.7912 190.084 95.3726 189.826 94.8649 190.186C94.3572 190.55 94.0544 191.503 93.952 192.462C93.854 193.415 92.8386 194.374 91.516 195.815C90.1934 197.248 89.3784 197.013 87.9578 196.538C86.5327 196.059 86.7331 191.991 86.5283 192.59C86.3279 193.185 85.6287 195.261 85.8335 195.625C86.0384 195.979 87.4501 197.377 87.9622 197.736C88.4699 198.095 88.3675 198.69 87.9622 199.293C87.5525 199.888 86.4392 202.048 86.0339 202.163C85.6287 202.283 82.4757 202.767 81.8656 202.407C81.2555 202.052 80.9482 203.246 81.0507 203.964C81.1531 204.679 81.6652 205.517 80.5474 205.278C79.4252 205.038 77.9022 204.2 77.9022 204.798C77.9022 205.397 78.2094 206.715 78.8195 206.715C79.4296 206.715 80.0398 206.231 79.7369 207.07C79.4296 207.908 78.6191 208.631 78.2139 208.991C77.8042 209.35 77.2965 210.543 76.2811 211.382C75.2658 212.22 75.2658 212.699 75.4706 213.059C75.6755 213.418 77.1985 213.178 77.5014 213.418C77.8086 213.657 77.203 215.334 76.7933 215.694C76.388 216.053 74.6601 217.725 73.9476 218.204C73.2351 218.684 73.2351 220.121 73.4399 220.839C73.6403 221.554 75.2702 223.35 76.1832 223.71C77.1005 224.069 79.0333 223.945 78.8284 224.309C78.628 224.668 76.3925 225.027 76.0852 225.147C75.7824 225.267 74.1524 225.75 73.3375 225.75C72.5225 225.75 70.995 224.792 70.6922 224.792C70.3894 224.792 70.8971 224.313 71.9124 223.355C72.9278 222.392 71.5027 221.323 71.3023 222.636C71.0975 223.949 70.6922 224.313 70.1845 224.313C69.6769 224.313 69.0667 223.475 68.7595 223.115C68.4522 222.756 67.134 222.397 67.3344 220.964C67.5348 219.531 66.7243 219.646 66.1142 219.052C65.4996 218.453 66.9247 217.974 66.7243 217.37C66.5194 216.776 65.602 217.135 65.4996 216.297C65.3972 215.463 66.3146 214.265 66.417 213.906C66.515 213.546 65.8024 212.828 65.7045 212.229C65.602 211.63 66.1097 211.031 66.8223 210.073C67.5348 209.11 68.0425 207.917 68.0425 207.558C68.0425 207.203 67.5303 205.885 67.5303 204.927C67.5303 203.973 68.038 203.61 68.2429 202.292C68.4433 200.974 67.5303 201.454 67.5303 200.376C67.5303 199.302 68.5457 199.657 68.3453 198.579C68.1405 197.501 68.853 196.782 69.1558 196.064C69.4586 195.345 69.7659 194.147 70.1712 193.313C70.5809 192.475 69.7615 190.558 69.7615 190.199C69.7615 189.84 71.0797 189.361 70.474 188.642C69.8639 187.928 71.0039 187.688 71.6141 187.085C72.2242 186.486 71.1821 184.454 71.4849 182.303C71.7877 180.147 72.0906 176.434 72.0861 176.074C72.0861 175.715 72.1885 174.278 71.6764 173.32C71.1687 172.361 70.5586 171.643 69.8461 171.283C69.1335 170.929 68.2161 169.851 67.7085 169.731C67.2008 169.611 64.1235 168.604 64.1235 166.927C64.1235 165.25 63.028 163.871 62.8232 162.673C62.6183 161.48 61.0908 158.845 60.9884 157.647C60.886 156.449 58.7484 156.09 58.4455 154.772C58.1383 153.455 58.8953 152.603 59.0957 151.764C59.3006 150.926 58.9443 149.027 58.8463 148.433C58.7439 147.834 59.7593 145.856 60.3694 145.496C60.975 145.137 62.0973 143.881 62.5025 143.881C62.9122 143.881 62.8054 142.559 63.2151 141.246C63.6203 139.929 63.0102 138.137 62.7029 137.897C62.3956 137.662 62.0928 136.1 61.5807 135.626C60.9296 135.017 60.2376 136.228 59.6073 136.858C59.5333 136.932 59.4479 137.003 59.3496 137.068C58.4366 137.666 58.2318 136.948 57.9245 136.588C57.6172 136.229 56.4994 136.109 55.9918 135.515C55.4796 134.912 54.6691 134.078 54.0546 133.723C53.4445 133.363 51.9615 133.053 52.0639 131.616C52.1663 130.183 51.3113 129.295 50.9016 129.06C50.4963 128.816 49.6814 128.222 49.1737 128.581C48.666 128.941 47.7486 127.867 47.0361 127.987C46.3236 128.107 44.8985 126.549 44.3908 125.955C43.8831 125.356 43.4734 124.518 42.5605 124.518C41.6431 124.518 41.5407 124.877 40.935 125.716C40.3294 126.554 39.4076 125.121 39.1047 124.762C38.8019 124.407 37.3189 125.006 36.1967 125.006C35.0789 125.006 34.5668 122.717 34.5267 122.251C34.3708 120.463 31.2713 120.459 30.5588 119.98C29.8462 119.5 29.1337 117.704 29.4365 117.229C30.2027 116.017 28.5864 114.518 27.5056 113.576C27.3015 113.398 27.1181 113.28 26.9917 113.281C26.484 113.281 24.8541 109.932 23.9322 108.978C23.0148 108.02 20.8817 105.864 20.472 104.79C20.0667 103.717 19.9598 102.04 18.9489 102.878C17.9291 103.717 18.7441 104.555 19.7595 105.509C20.7793 106.467 20.5789 107.425 21.9995 108.743C23.4245 110.06 22.8144 111.373 23.429 111.968C24.0391 112.571 26.1767 114.004 25.2593 114.962C24.3464 115.925 23.429 113.769 23.0193 113.649C22.614 113.529 21.6967 113.29 21.7991 112.576C21.9015 111.857 20.9841 111.258 20.2716 110.185C19.559 109.107 19.2562 109.71 18.3388 109.71C17.4214 109.71 18.2364 108.392 18.7396 107.794C19.2518 107.195 18.232 106.356 17.6218 106.121C17.0117 105.877 16.1923 103.127 15.3818 101.454C14.5669 99.7774 13.9568 98.9435 13.0394 99.0588C12.122 99.1786 10.6079 98.2736 9.99775 97.7945C9.38764 97.3154 9.57468 94.636 8.55487 93.4427C7.53505 92.2449 6.61767 89.978 6.72009 88.6561C6.81807 87.3385 7.12089 83.9893 7.12089 83.1553C7.12089 82.3168 6.33265 80.7243 6.33265 80.3649C6.33265 80.0056 6.10108 78.9631 5.69138 78.8478C5.28612 78.728 3.96348 77.5524 3.0461 77.5569C2.13316 77.5569 1.72345 75.8623 2.02628 75.0194C2.32911 74.1854 1.21132 72.7481 0.703642 72.7481C0.195962 72.7481 -0.619 71.191 -0.926279 70.3526C-1.23356 69.5142 -2.04406 69.5142 -1.84366 69.9933C-1.63881 70.4724 -1.94609 71.3108 -1.43396 71.5503C-0.926279 71.7899 -0.516572 73.7019 -0.921825 73.9414C-1.32708 74.1854 -2.24447 73.2272 -3.26428 72.6283C-4.27964 72.0339 -3.87439 69.6384 -3.87439 69.0351C-3.87439 68.4362 -5.29945 67.8373 -5.90956 67.8373C-6.51967 67.8373 -7.12977 67.9615 -7.2322 66.4044C-7.33462 64.8474 -9.16494 64.0134 -9.7795 64.0134C-10.3896 64.0134 -13.8142 62.8555 -14.834 62.8555C-15.8494 62.8555 -17.4081 61.3872 -18.0182 61.8663C-18.6283 62.3498 -19.7461 61.0323 -20.3562 61.0323C-20.9663 61.0323 -20.6412 62.6603 -21.759 63.4988C-22.8768 64.3372 -23.6071 62.7091 -24.2172 63.308C-24.8229 63.9069 -26.3504 64.5058 -25.8427 63.0685C-25.335 61.6312 -25.335 61.3916 -26.1455 61.7509C-26.9605 62.1103 -27.1609 63.0685 -27.1609 63.6673C-27.1609 63.7608 -27.1955 63.8631 -27.2539 63.9691C-27.5513 64.5084 -27.3464 65.3647 -26.7467 65.2244C-26.239 65.1091 -26.6443 66.542 -27.1564 66.9013C-27.6641 67.2606 -28.3722 68.2188 -29.1871 67.9793C-29.9976 67.7397 -30.1045 66.9057 -30.6077 66.7815C-31.1199 66.6617 -31.6721 68.3297 -33.5069 69.4077C-35.3327 70.4857 -35.5955 68.9419 -36.308 69.3012C-37.0205 69.6606 -39.5589 70.743 -40.4763 70.8627C-41.3893 70.9781 -41.1889 69.5452 -40.6812 69.5452C-40.1735 69.5452 -38.2452 68.4672 -37.7331 68.1035C-37.2254 67.7441 -34.9898 66.7859 -34.3797 66.4266C-33.7696 66.0673 -32.7542 65.4684 -33.1595 64.7498C-33.1779 64.7174 -33.1981 64.6887 -33.22 64.6635C-33.9107 63.8671 -35.3845 64.4471 -36.21 63.7916C-36.8704 63.2692 -37.9353 64.6903 -38.1463 63.8752C-38.1944 63.6894 -38.2001 63.4657 -38.1383 63.1971C-37.8355 61.8796 -38.8509 61.8796 -39.0513 62.4785C-39.2561 63.0773 -40.984 64.0355 -41.0864 63.4367C-41.1889 62.8422 -42.7163 61.64 -43.1261 60.6863C-43.5358 59.7325 -42.7163 59.6083 -41.8034 58.7698C-40.8905 57.9359 -39.5678 57.6919 -38.4456 57.8116C-37.3234 57.9314 -36.6197 56.3743 -37.025 56.2501C-37.4302 56.1304 -38.1428 56.015 -38.7529 56.6095C-39.363 57.2128 -40.8905 57.093 -40.8905 57.093C-40.8905 57.093 -43.1305 57.093 -44.0434 56.3788C-45.0449 55.5943 -44.5246 54.1282 -43.2914 53.8161C-43.0411 53.7528 -42.787 53.6991 -42.5395 53.6623C-42.3249 53.6305 -42.1146 53.5708 -41.9237 53.4677L-41.1008 53.0236C-41.0974 53.0218 -41.0953 53.0182 -41.0953 53.0144ZM52.0906 88.574C52.0906 88.5753 52.0917 88.5763 52.0929 88.5765C53.106 88.7023 53.1059 87.0188 53.0036 86.54C52.9011 86.0609 52.9011 84.0292 53.3064 83.6654C53.7117 83.3061 54.2193 82.2281 55.3371 82.1083C56.4549 81.9886 57.1674 82.9468 57.065 84.0247C56.9626 85.0983 57.2699 86.1763 57.6796 86.1763C58.0893 86.1763 59.3095 85.3378 58.8998 84.6236C58.4945 83.905 59.2026 81.5095 59.2026 82.3479C59.2026 83.1863 60.022 83.7808 60.5297 83.661C61.0374 83.5412 60.0176 81.3852 59.305 81.2699C58.5925 81.1457 57.1674 81.1501 56.8646 81.2699C56.5618 81.3852 54.8294 80.671 54.0145 80.7908C53.204 80.915 51.9838 81.2743 51.5785 82.2325C51.1733 83.1908 51.5785 84.983 51.4761 85.7016C51.3782 86.4197 51.1736 88.4531 52.0884 88.5715C52.0896 88.5717 52.0906 88.5727 52.0906 88.574ZM57.7865 88.574C57.7865 88.5735 57.7872 88.5734 57.7873 88.5739C58.0208 89.1208 59.1099 88.6906 59.7192 87.9729C60.3293 87.2542 61.6475 87.0147 62.0572 86.4158C62.458 85.8169 62.7653 85.9412 63.7806 85.4576C64.8005 84.9785 65.611 84.8587 65.2057 84.2599C64.796 83.661 62.6628 84.2599 62.3556 84.0247C62.2327 83.9258 61.808 84.3407 61.3465 84.8689C60.3566 86.0018 58.3993 86.4108 57.9869 87.8576C57.8845 88.2165 57.48 87.8583 57.7855 88.5741C57.7857 88.5745 57.7865 88.5745 57.7865 88.574ZM47.2031 79.3646C47.2017 79.366 47.2009 79.368 47.2009 79.37C47.2043 80.0103 48.2173 80.0804 48.8263 79.7217C49.4365 79.3624 50.3538 79.1228 50.7591 79.003C51.1643 78.8833 50.9639 79.5975 51.8769 79.5975C52.7898 79.5975 53.912 79.9568 54.2193 79.837C54.5222 79.7128 55.4351 78.2755 54.7226 78.1602C54.01 78.0404 52.8922 77.2064 52.2821 76.4833C51.672 75.7691 50.2514 77.446 48.9288 78.0448C47.6077 78.643 47.2018 78.4091 47.2053 79.3591C47.2053 79.3611 47.2045 79.3632 47.2031 79.3646ZM5.49988 75.4541C4.66711 75.1303 5.80716 76.8914 6.31484 77.2508C6.82252 77.6101 7.84233 77.6101 7.94476 78.2045C8.04273 78.8034 8.35001 80.2407 8.86215 80.1165C9.36983 79.9967 9.36983 78.6836 8.96012 78.2045C8.55487 77.7254 7.02292 76.2926 6.72009 76.2926C6.41727 76.2926 5.80271 75.5784 5.49988 75.4541Z" fill="#00A58D"></path>
<path d="M55.7245 58.9695C55.4484 59.3288 56.9447 59.8479 57.2164 59.3688C57.488 58.8941 56.4014 58.0911 55.7245 58.9695Z" fill="#00A58D"></path>
<path d="M59.6614 59.6881C58.5837 60.0519 59.5946 60.9613 60.2715 60.6419C60.9484 60.3225 60.61 59.3643 59.6614 59.6881Z" fill="#00A58D"></path>
<path d="M9.06042 40.2623C9.06154 40.2623 9.06232 40.2634 9.06202 40.2645C8.92689 40.7502 9.6741 40.7414 10.5501 40.737C11.4318 40.737 12.8569 40.737 13.2621 40.4974C13.6719 40.2579 15.7026 39.6989 15.6358 40.4176C15.569 41.1362 16.4507 42.2497 16.9228 42.09C17.3993 41.9303 18.3478 40.8967 18.8199 41.2915C19.2964 41.6907 19.3632 42.6489 19.8397 42.884C20.3162 43.1236 21.6032 43.1236 22.2133 42.884C22.819 42.6445 24.5202 42.6445 25.2639 42.7998C26.0076 42.9595 28.1764 43.4341 28.3857 42.9595C28.5861 42.4804 29.1962 42.3961 29.2674 41.917C29.2869 41.7672 29.3334 41.516 29.3881 41.2414C29.5591 40.3827 29.3402 39.0012 28.5861 39.446C27.9091 39.8453 27.7043 40.0848 27.0942 39.9251C26.4885 39.7699 26.4841 38.4878 25.3975 38.7318C24.3109 38.9714 24.1105 39.6945 23.772 40.0094C23.4336 40.3288 22.6898 40.5684 22.4182 40.4131C21.182 39.6864 19.8194 39.2274 18.4028 39.0047C17.7768 38.9063 17.2467 38.7684 17.1944 38.581C17.0564 38.1019 16.5175 37.3078 15.0212 37.4675C13.5293 37.6272 10.9553 38.6697 10.5456 38.6697C10.1448 38.6697 11.0266 39.6235 10.4788 39.6235C9.93606 39.6235 9.25998 39.5438 9.05881 40.2601C9.05851 40.2612 9.0593 40.2623 9.06042 40.2623Z" fill="#00A58D"></path>
<path d="M20.5856 36.9795C20.586 36.9795 20.5861 36.9802 20.5857 36.9804C19.7999 37.2872 19.9782 38.1773 20.521 38.1773C21.0598 38.1773 22.4181 37.6139 22.8234 38.0132C23.2331 38.4124 24.2484 38.093 24.1772 37.6938C24.1104 37.2945 24.5824 35.6975 23.7719 35.6221C22.953 35.5423 21.8093 36.4994 20.5854 36.9787C20.585 36.9789 20.5851 36.9795 20.5856 36.9795Z" fill="#00A58D"></path>
<path d="M29.7371 35.9327C29.7382 35.9327 29.7391 35.9337 29.7389 35.9349C29.6341 36.5017 30.2837 36.9707 31.0931 36.9707C31.9081 36.9707 33.6672 36.4916 33.8052 36.8864C33.9433 37.2857 33.7429 37.6051 34.687 37.7603C35.64 37.92 36.0452 38.0842 36.5841 38.0842C37.1274 38.0842 36.9225 37.0461 36.446 36.323C35.9695 35.6088 36.1076 35.6887 34.8874 35.285C33.6672 34.8902 32.4469 34.8902 31.632 34.97C30.8176 35.0542 29.9364 34.8151 29.7353 35.9304C29.7351 35.9315 29.7359 35.9327 29.7371 35.9327Z" fill="#00A58D"></path>
<path d="M31.1023 39.6013C31.0994 39.6013 31.0967 39.6024 31.0948 39.6045C30.5878 40.1357 31.0974 41.7576 30.8974 41.9125C30.697 42.0722 30.9642 42.7909 31.512 42.6312C32.0553 42.4759 32.3225 40.9587 32.7278 40.9587C33.133 40.9587 35.235 40.3954 35.5779 41.2737C35.9208 42.1521 35.9163 41.7528 36.8694 41.8327C37.8179 41.9081 38.5616 40.7148 38.6284 40.3155C38.6952 39.9163 38.1519 39.1177 36.8694 39.2774C35.5802 39.4369 31.6596 39.0437 31.1097 39.5983C31.1077 39.6003 31.1051 39.6013 31.1023 39.6013Z" fill="#00A58D"></path>
<path d="M33.607 43.8245C33.6083 43.8271 33.6076 43.8302 33.6053 43.8319C33.1431 44.1904 33.4109 45.3463 34.1525 45.4215C34.8962 45.5058 36.1833 44.8625 36.3169 45.3416C36.4549 45.8207 36.9314 47.9723 38.1516 47.2536C39.3719 46.535 39.305 45.8962 39.6435 45.8163C39.982 45.732 39.5722 43.9753 39.0289 43.5761C38.4856 43.1768 36.7221 43.4208 36.2501 43.6603C35.7744 43.8995 34.3536 43.2678 33.6088 43.8171C33.6065 43.8188 33.6057 43.8219 33.607 43.8245Z" fill="#00A58D"></path>
<path d="M41.269 44.5454C41.269 44.5449 41.2696 44.5447 41.2698 44.5451C41.3524 44.763 41.8862 45.1771 42.7653 45.0223C43.6427 44.8581 44.9341 44.6984 45.5442 44.623C46.1543 44.5432 46.2879 43.341 45.611 43.2656C44.9341 43.1857 44.3908 42.4671 43.7807 42.7111C43.1714 42.9503 41.074 43.986 41.2683 44.5455C41.2684 44.5459 41.269 44.5458 41.269 44.5454Z" fill="#00A58D"></path>
<path d="M41.0642 41.1895C40.7703 42.0279 43.7807 42.4671 43.4378 41.5089C43.0949 40.5507 41.4026 40.2357 41.0642 41.1895Z" fill="#00A58D"></path>
<path d="M41.6053 37.1148C41.6039 37.1162 41.6019 37.1168 41.6001 37.1162C40.7402 36.8724 39.3007 36.5623 39.3007 36.323C39.3007 36.0879 38.891 37.4453 39.6391 37.8402C40.3828 38.235 41.603 38.9536 42.4893 39.3529C43.371 39.7477 45.0633 39.8275 45.6066 40.6261C45.9181 41.0813 46.6526 41.4855 47.2227 41.7476C47.7176 41.9751 48.2535 42.089 48.7949 42.1487C49.6926 42.2477 50.6004 42.1591 51.4988 42.067C52.0011 42.0155 52.5975 41.9923 53.204 42.0545C54.7671 42.2142 57.0695 42.4537 58.3565 42.3695C59.6435 42.2896 59.8483 41.8105 59.9819 41.4911C60.12 41.1717 57.6083 40.5329 56.9982 40.6172C56.3881 40.697 52.9279 40.697 51.9125 40.6216C50.8971 40.5373 49.6101 40.5418 48.7952 40.6216C47.9802 40.7015 47.3701 39.9828 46.76 39.5836C46.1499 39.1843 44.7916 37.9067 43.9811 37.747C43.1711 37.5874 43.3041 37.5873 41.6106 37.1135C41.6088 37.113 41.6066 37.1135 41.6053 37.1148Z" fill="#00A58D"></path>
<path d="M126.682 53.6417C126.683 53.6417 126.683 53.6428 126.683 53.6437C126.411 54.1785 125.874 54.2065 126.412 55.3185C126.96 56.432 127.365 57.0708 127.842 56.9954C128.314 56.9156 129.944 56.8313 130.149 57.4701C130.349 58.1089 130.897 58.6678 132.041 58.2686C133.195 57.8693 134.143 57.6298 134.415 57.1507C135.124 55.9003 138.301 55.9423 137.513 54.74C137.499 54.7174 137.481 54.6958 137.461 54.6753C136.918 54.1164 135.631 53.7171 135.016 53.6373C134.406 53.5574 133.796 54.2006 132.442 54.2006C131.088 54.2006 130.207 54.8394 129.663 54.2006C129.125 53.5629 126.892 53.2479 126.681 53.6398C126.68 53.6407 126.681 53.6417 126.682 53.6417Z" fill="#00A58D"></path>
<path d="M68.8975 37.8956C68.9002 37.8943 68.9036 37.8948 68.9059 37.8967C69.6516 38.5308 70.0837 38.1334 71.0129 38.3681C71.9436 38.6032 72.6873 40.3643 73.1816 40.6039C73.6759 40.8434 74.3573 40.6039 74.669 40.1203C74.6907 40.0869 74.713 40.0475 74.7356 40.0031C74.8809 39.7187 75.8621 39.7524 76.1564 39.8763C76.9002 40.1957 78.7572 39.6368 79.256 39.7166C79.7503 39.7965 82.6672 40.2712 83.4733 40.7503C84.2793 41.2294 86.2611 41.5488 86.8222 42.5824C87.3789 43.6204 87.4457 47.2093 87.7529 47.6085C88.0647 48.0078 89.1157 46.3309 89.365 45.9361C89.6144 45.5324 90.9193 45.7764 91.3512 46.3309C91.7832 46.8854 92.7763 48.2473 92.7184 48.8018C92.656 49.3564 92.4735 50.2347 92.0994 49.9197C91.7298 49.6003 91.1063 49.6802 91.3557 49.0414C91.6051 48.407 91.7253 47.0496 91.231 47.0496C90.6147 47.0496 89.9336 46.8658 89.4047 47.1819C89.183 47.3143 88.9526 47.5426 88.7549 47.9279C88.1315 49.1301 88.6302 50.3234 89.0667 50.3234C89.4986 50.3234 90.4917 50.3234 90.4917 50.6384C90.4917 50.9578 89.4408 51.916 89.4986 52.475C89.561 53.0339 90.367 54.9459 90.6164 55.3451C90.8614 55.7444 92.1662 56.1436 92.5358 56.2235C92.9099 56.2989 91.6719 56.3832 91.9791 56.9421C92.2953 57.5011 92.7897 58.8541 93.471 59.1735C94.1524 59.4929 96.0762 60.9258 96.3211 61.5646C96.5705 62.2034 98.0579 61.0855 98.3697 61.0056C98.677 60.9258 98.6146 62.6825 99.4875 62.7623C100.351 62.8333 100.663 62.5982 101.407 61.8796C102.151 61.1609 101.964 60.2027 102.021 59.484C102.084 58.7654 102.021 58.2064 102.827 58.4416C103.634 58.6811 104.07 58.2819 104.008 57.4834C103.945 56.6848 103.264 55.7311 104.564 55.4871C105.869 55.2475 106.55 54.2095 107.352 54.2095C108.158 54.2095 110.389 54.6087 110.639 54.2095C110.888 53.8102 111.943 51.4236 112.629 51.3482C113.311 51.2639 115.105 51.6543 116.713 51.3304C118.325 51.0155 120.057 49.8133 120.614 49.8887C121.171 49.9685 122.533 49.9641 122.101 49.4894C121.67 49.0103 121.046 47.8969 120.115 47.8969C119.185 47.8969 119.029 45.4393 119.274 45.4393C119.519 45.4393 121.785 46.3797 121.723 47.1782C121.665 47.9767 122.097 49.0103 123.34 48.6954C124.578 48.3715 124.386 47.1738 124.141 46.8544C123.892 46.535 123.705 45.7365 123.46 45.182C123.21 44.623 122.618 42.8707 123.923 42.711C125.228 42.5469 127.677 44.379 127.61 43.1014C127.548 41.8238 127.61 40.4663 127.98 39.7477C128.35 39.029 129.156 38.5499 128.724 38.3104C128.287 38.0753 127.731 38.6298 127.294 37.4365C126.858 36.2387 127.664 35.3604 128.158 34.8768C128.657 34.3977 131.253 31.2836 132.683 30.8045C134.108 30.3254 135.101 28.4844 134.103 28.0895C133.11 27.6903 131.124 26.9761 129.828 28.2537C128.523 29.5357 127.784 30.729 126.297 30.3342C124.809 29.935 124.582 27.8234 123.731 26.7365C122.502 25.1573 123.25 22.0387 121.95 22.2827C121.091 22.4408 120.211 22.4012 119.339 22.3605C118.943 22.3421 118.524 22.3553 118.183 22.4424C116.945 22.7573 116.143 23.6312 115.435 23.4449C114.045 23.0767 112.798 23.9329 112.447 24.0216C109.409 24.8068 106.969 23.7421 106.519 23.6667C106.167 23.6046 108.648 23.9994 110.563 23.6667C112.037 23.405 114.517 22.8106 115.733 22.571C116.949 22.3314 115.974 21.7636 115.542 21.706C113.974 21.5019 111.592 20.7478 109.712 20.6368C108.234 20.5481 107.285 21.0805 105.811 21.1248C103.923 21.1825 101.674 21.0538 100.196 22.1274C98.8952 23.0723 97.2252 23.1743 97.0916 23.3473C96.3479 24.3011 95.671 26.701 94.9851 26.0622C94.3038 25.4234 94.1791 23.8309 93.3107 24.4652C92.4423 25.104 93.2484 26.701 92.5046 27.8189C91.7654 28.9368 89.6545 28.7771 89.0355 28.3823C88.4165 27.9875 87.793 27.6637 85.317 27.8278C82.8365 27.992 80.111 28.9502 80.6677 29.9084C81.2243 30.8666 79.5543 31.4211 79.1224 30.9464C78.6859 30.4673 76.7042 31.5009 76.8289 32.4636C76.9536 33.4173 76.5216 34.5397 75.4662 34.2957C74.4107 34.0606 73.667 34.8591 73.6047 35.6576C73.5468 36.4605 71.1865 37.0195 71.004 37.0195C70.8171 37.0195 67.7872 36.9442 68.889 37.8943C68.8913 37.8963 68.8948 37.897 68.8975 37.8956Z" fill="#00A58D"></path>
<path d="M55.0637 115.385C55.062 115.387 55.0609 115.39 55.0607 115.392C54.9653 116.585 55.9797 116.222 57.1986 116.222C58.4188 116.222 60.5564 115.983 60.9617 116.577C61.3669 117.176 63.2017 118.13 63.7094 118.609C64.2215 119.083 65.847 119.203 65.9494 118.724C66.0518 118.249 64.8316 116.927 64.1146 117.052C63.4021 117.171 61.8746 116.213 61.0641 115.379C60.2491 114.541 58.7216 114.545 58.116 114.545C57.5121 114.545 55.1148 115.367 55.0662 115.383C55.0647 115.384 55.0649 115.384 55.0637 115.385Z" fill="#00A58D"></path>
<path d="M62.4847 112.03C61.5584 112.15 61.7766 113.467 62.8944 113.228C64.0122 112.988 63.3976 111.91 62.4847 112.03Z" fill="#00A58D"></path>
<path d="M63.0013 121.945C62.0706 122.14 62.2932 124.278 63.4066 123.888C64.5243 123.497 63.9142 121.75 63.0013 121.945Z" fill="#00A58D"></path>
<path d="M76.4238 120.614C75.4931 120.809 75.7157 122.947 76.8335 122.553C77.9513 122.167 77.3412 120.414 76.4238 120.614Z" fill="#00A58D"></path>
<path d="M67.1775 121.123C67.1765 121.122 67.177 121.12 67.1784 121.121C67.2545 121.137 68.3177 121.359 69.0044 121.359C69.7169 121.359 70.1222 121.838 70.7323 122.198C71.3424 122.557 72.4602 121.719 72.8699 121.719C73.2796 121.719 73.7873 123.156 73.8897 121.599C73.9877 120.042 72.665 119.323 71.8545 119.083C71.0396 118.844 70.1266 119.083 69.5165 119.208C68.9059 119.327 67.2003 121.101 67.1787 121.124C67.1782 121.124 67.1781 121.124 67.1775 121.123Z" fill="#00A58D"></path>
<path d="M169.267 99.3494C169.267 99.3504 169.268 99.351 169.269 99.3505C169.677 99.1103 171.299 98.508 172.215 98.0341C173.128 97.555 176.076 96.3528 176.481 96.3528C176.891 96.3528 181.977 96.4725 182.685 96.1088C183.397 95.7495 186.149 95.2393 186.964 97.8744C187.775 100.505 186.047 99.4625 185.232 99.9372C184.417 100.416 185.539 101.494 185.945 101.494C186.354 101.494 187.775 103.051 188.487 103.047C190.209 103.047 191.465 104.716 193.075 105.328C193.256 105.397 193.428 105.438 193.578 105.438C194.491 105.438 196.045 107.292 197.06 106.095C198.071 104.897 198.556 102.439 199.576 102.674C200.592 102.914 201.709 103.868 203.032 103.868C204.355 103.868 206.8 103.624 207.205 104.222C207.614 104.817 204.457 106.858 204.662 107.337C204.867 107.811 205.272 107.696 206.292 106.259C207.303 104.821 208.835 104.817 210.05 104.462C211.271 104.103 211.885 106.37 212.09 107.088C212.29 107.807 213.203 109.12 213.92 110.681C214.633 112.234 215.345 114.39 216.16 116.062C216.975 117.744 216.071 121.106 216.886 122.18C217.701 123.258 219.826 124.198 220.338 125.636C220.845 127.073 222.07 128.506 222.48 128.626C222.889 128.745 224.617 131.491 224.72 132.21C224.822 132.929 224.11 134.49 225.735 134.606C227.365 134.725 228.786 133.767 229.298 133.528C229.805 133.288 233.769 131.487 234.272 132.201C234.784 132.92 233.569 136.034 233.466 136.877C233.364 137.715 230.416 141.783 230.313 142.861C230.22 143.939 228.492 145.856 227.374 146.1C226.256 146.335 223.918 149.693 223.108 150.771C222.293 151.849 220.974 154.244 220.364 154.479C219.754 154.719 219.287 157.904 219.594 158.383C219.897 158.858 219.959 161.067 220.877 162.025C221.794 162.983 222.101 163.698 221.691 164.536C221.286 165.375 221.901 167.286 221.691 168.844C221.491 170.401 219.763 171.953 219.353 172.428C218.953 172.912 217.02 174.233 216.205 175.431C215.39 176.629 214.682 177.707 214.887 178.306C215.087 178.905 215.907 181.895 215.804 182.609C215.706 183.332 213.007 183.7 212.193 184.179C211.378 184.658 212.558 186.207 212.758 187.165C212.958 188.123 211.333 189.68 210.625 190.519C209.912 191.357 207.984 194.227 206.666 195.31C205.343 196.392 203.437 196.175 202.115 196.055C200.796 195.935 198.632 197.111 198.124 197.709C197.612 198.308 196.904 198.189 195.889 197.594C194.869 196.991 194.767 196.157 194.669 194.835C194.555 193.379 194.255 191.905 193.624 190.589C193.464 190.255 193.269 189.939 193.034 189.693C192.117 188.735 191.81 187.662 191.302 186.939C190.794 186.224 192.242 184.179 192.135 182.862C192.032 181.544 190.278 180 189.766 179.162C189.253 178.324 188.238 176.052 187.828 175.214C187.428 174.371 186.911 172.703 187.013 170.312C187.116 167.916 188.145 166.515 188.959 165.796C189.77 165.077 189.449 164.203 188.737 162.771C188.02 161.333 188.835 158.933 188.22 158.099C187.61 157.261 186.662 152.585 185.539 151.871C184.422 151.157 183.232 151.161 183.838 149.484C184.448 147.807 183.838 146.135 184.854 145.053C185.869 143.979 185.357 143.26 184.243 142.542C183.126 141.823 183.531 141.468 182.618 142.307C181.701 143.145 180.48 143.624 179.772 142.786C179.06 141.952 179.26 140.63 177.937 139.676C176.615 138.722 174.495 139.051 173.983 139.29C173.475 139.53 172.447 141.597 171.021 141.836C169.601 142.08 168.581 141.721 167.156 141.721C165.735 141.721 164.511 141.841 164.31 142.684C164.11 143.522 163.803 144.001 162.89 143.163C160.985 141.422 159.497 139.265 158.443 136.909C158.234 136.44 158.052 136.008 157.933 135.675C157.425 134.242 155.657 134.193 153.725 133.115C151.792 132.041 152.91 130.844 152.705 129.646C152.5 128.448 151.485 127.969 151.992 127.849C152.504 127.73 152.402 126.896 153.515 125.214C154.633 123.542 153.921 121.745 153.716 120.783C153.511 119.824 152.496 118.391 153.506 116.834C154.526 115.277 155.159 111.564 155.969 110.606C156.784 109.648 159.198 108.69 160.316 108.095C161.433 107.492 160.721 105.939 161.331 104.143C161.941 102.346 162.858 101.508 163.166 101.508C163.473 101.508 164.595 100.265 165.802 99.4714C166.718 98.8689 168.851 99.5846 169.265 99.3482C169.266 99.3477 169.267 99.3484 169.267 99.3494ZM213.749 148.508C213.75 148.508 213.751 148.507 213.75 148.506C213.471 147.99 211.716 148.15 211.409 148.748C211.106 149.351 210.803 152.097 211.716 152.341C212.628 152.576 214.252 149.471 213.748 148.51C213.747 148.509 213.748 148.508 213.749 148.508Z" fill="#00A58D"></path>
<path d="M232.279 166.206C232.278 166.205 232.276 166.204 232.274 166.203C230.999 165.781 230.855 167.762 229.841 169.083C228.826 170.401 227.708 171.474 227.298 171.359C226.893 171.239 224.657 172.202 225.365 173.994C226.078 175.791 225.98 177.587 225.272 178.426C224.559 179.264 225.882 181.655 225.682 182.973C225.477 184.29 225.989 185.124 227.414 185.12C228.834 185.12 229.347 184.525 229.957 182.968C230.567 181.411 230.66 179.854 231.27 178.541C231.881 177.223 232.384 174.464 232.691 173.75C232.998 173.031 233.608 170.751 233.506 169.438C233.399 168.127 232.995 166.448 232.284 166.209C232.282 166.209 232.281 166.208 232.279 166.206Z" fill="#00A58D"></path>
<path d="M269.164 135.411C269.164 135.412 269.163 135.413 269.162 135.414C268.504 135.765 267.838 141.517 269.053 141.992C270.277 142.471 271.101 138.398 270.696 137.8C270.287 137.201 270.082 134.933 269.166 135.407C269.165 135.408 269.164 135.409 269.164 135.411Z" fill="#00A58D"></path>
<path d="M183.495 90.8431C182.538 90.8431 182.075 92.6397 182.685 93.2341C183.295 93.833 183.909 93.7132 184.413 92.8748C184.92 92.0364 184.003 90.8431 183.495 90.8431Z" fill="#00A58D"></path>
<path d="M175.769 92.7594C175.524 93.2164 176.584 93.3627 176.784 92.8792C176.989 92.4001 176.477 91.4419 175.769 92.7594Z" fill="#00A58D"></path>
<path d="M187.875 94.7868C187.874 94.7868 187.872 94.7873 187.871 94.7881C187.502 95.0513 188.479 95.8607 188.995 96.0999C189.503 96.3394 189.908 97.0581 190.318 97.1779C190.728 97.3021 192.046 97.1779 191.64 95.9801C191.231 94.7824 190.318 94.7868 190.011 94.7868C189.708 94.7868 188.388 94.4327 187.879 94.7855C187.878 94.7864 187.877 94.7868 187.875 94.7868Z" fill="#00A58D"></path>
<path d="M146.655 68.862C146.653 68.862 146.652 68.8622 146.65 68.8624C145.731 69.0457 145.637 70.1795 145.027 70.184C144.417 70.184 143.705 70.4235 143.914 71.262C144.114 72.1048 144.524 72.6993 143.914 73.0586C143.304 73.4179 144.012 74.8508 144.831 74.9706C145.642 75.0903 146.564 74.3717 147.272 74.0124C147.984 73.653 149 72.9344 149 71.8564C149 70.774 148.795 69.8202 148.385 69.3411C147.98 68.8626 147.269 68.7425 146.659 68.8616C146.658 68.8619 146.656 68.862 146.655 68.862Z" fill="#00A58D"></path>
<path d="M164.66 67.0388C164.658 67.0388 164.657 67.0391 164.656 67.0396C163.834 67.3648 164.15 68.592 164.56 69.1948C164.965 69.7892 165.682 71.1067 166.697 71.5858C167.713 72.0649 169.85 72.5396 169.04 73.0187C168.225 73.5023 165.873 75.8578 165.673 76.5765C165.562 76.9673 166.357 77.0498 167.107 77.0438C167.575 77.04 167.803 77.8493 168.229 78.0448C168.737 78.2844 169.044 77.2109 169.855 77.2109C170.67 77.2109 172.295 77.8053 173.11 77.8053C173.925 77.8053 175.243 76.4878 175.145 75.6493C175.043 74.8109 174.019 73.4978 173.106 73.0187C172.188 72.5396 171.173 70.3881 170.563 69.909C169.953 69.4299 172.821 67.8417 172.108 67.0078C171.391 66.1738 169.24 66.6839 168.421 66.0806C167.61 65.4817 166.898 66.2004 166.39 66.919C165.883 67.6369 165.274 66.8012 164.664 67.038C164.663 67.0385 164.661 67.0388 164.66 67.0388Z" fill="#00A58D"></path>
<path d="M171.391 83.6809C171.388 83.6735 171.386 83.6658 171.385 83.658C171.269 82.5848 169.249 81.6328 167.931 81.3985C166.608 81.159 166.809 80.4447 168.234 80.3205C169.659 80.1963 169.556 79.6019 170.776 79.3579C171.992 79.1183 173.217 78.759 174.13 78.6392C175.047 78.515 175.047 77.5613 175.047 76.8426C175.047 75.0121 178.233 75.0942 179.567 73.8408C179.656 73.7569 179.742 73.6788 179.821 73.6087C180.636 72.89 182.057 73.0053 183.179 73.3647C184.297 73.7196 183.077 72.5218 182.667 71.9274C182.257 71.3285 182.564 70.011 182.867 69.2923C183.175 68.5737 185 68.2143 185.513 68.4539C186.02 68.689 185.513 69.767 185.615 70.7296C185.661 71.1602 185.85 71.5182 186.044 71.782C186.31 72.1435 186.777 72.2489 187.221 72.1816C187.305 72.1689 187.39 72.1625 187.475 72.1625H188.67C189.988 72.1625 190.059 72.1891 191.075 71.8298C192.095 71.4704 192.838 71.9185 193.244 71.6789C193.649 71.435 194.767 71.435 196.294 72.0338C197.817 72.6283 197.002 70.9559 197.305 69.9976C197.612 69.0394 198.222 67.3626 199.238 67.4824C200.258 67.6021 201.068 68.3164 201.883 67.7175C202.693 67.1186 200.355 66.2802 200.355 65.9208C200.355 65.5615 202.288 65.5615 204.016 65.4373C205.744 65.3175 206.764 65.4373 207.579 65.1978C208.389 64.9582 206.964 63.2813 206.657 63.2813C206.354 63.2813 204.315 63.5209 203.299 63.4056C202.284 63.2858 201.166 64.1242 200.253 64.3682C199.34 64.6033 199.131 62.9309 198.623 62.2122C198.111 61.4936 197.911 60.1805 199.233 59.4618C200.556 58.7387 202.894 57.1817 203.295 56.463C203.704 55.7444 201.669 55.8686 199.736 55.9883C197.799 56.1081 200.044 56.707 198.213 58.863C196.388 61.0189 195.47 59.5816 194.045 61.0189C192.62 62.4562 193.64 62.576 194.963 63.0551C196.285 63.5298 195.167 64.9715 194.86 65.3264C194.557 65.6857 193.03 67.0033 193.239 67.9615C193.512 69.2583 191.577 69.6849 190.29 70.0035C189.249 70.2614 188.107 70.5381 187.748 70.601C187.04 70.7252 186.835 70.0065 187.04 69.2879C187.24 68.5692 186.221 66.8968 186.123 65.8188C186.02 64.7408 184.497 66.2979 184.395 67.0166C184.297 67.7352 182.36 67.8506 181.242 67.3803C180.124 66.9012 179.514 65.1046 179.719 64.7453C179.919 64.3904 179.104 62.5893 179.104 62.1102C179.104 61.6355 181.478 58.1443 183.411 57.6652C185.348 57.1861 187.641 56.0017 188.964 54.8039C190.287 53.6061 190.892 52.1688 191.297 51.8051C191.703 51.4457 198.726 47.4754 201.268 46.9919C203.811 46.5128 209.396 49.3963 210.313 49.6358C211.226 49.8709 211.738 50.2302 213.978 51.1885C216.214 52.1467 218.329 51.0997 219.75 51.3348C221.175 51.5744 221.91 53.1004 222.831 53.5751C223.744 54.0542 222.831 54.4135 220.587 55.252C218.351 56.0904 216.824 55.8553 215.608 55.3762C214.383 54.8971 213.675 54.8971 214.588 55.6157C215.506 56.3344 215.203 56.6937 215.296 57.7717C215.403 58.8496 216.824 57.8959 217.131 57.6519C217.434 57.4123 217.434 56.9332 218.556 57.7717C219.674 58.6101 220.084 58.1266 220.587 58.0112C221.099 57.8959 220.689 56.5784 220.992 56.0948C221.3 55.6157 222.52 55.6113 222.827 55.3762C223.13 55.1366 223.838 54.7773 224.448 54.6575C225.058 54.5333 224.96 55.7355 225.57 56.0904C226.18 56.4497 225.873 54.5333 225.668 54.0586C225.463 53.5795 225.259 52.262 225.57 51.8982C225.873 51.5389 228.011 51.2994 228.518 51.7785C229.026 52.2576 227.708 53.6949 228.011 54.5333C228.318 55.3717 229.026 54.0586 229.534 53.3355C230.041 52.6169 231.159 53.3355 232.985 52.9762C234.82 52.6169 234.41 51.4147 236.338 52.1333C238.28 52.852 237.768 52.852 238.378 52.1333C238.988 51.4147 240.106 52.2531 241.224 51.7696C242.342 51.2905 242.342 51.7696 243.161 52.2487C243.971 52.7234 244.987 51.286 245.397 50.8069C245.797 50.3278 247.427 50.3234 248.242 50.4476C249.057 50.563 250.072 51.1618 250.887 51.1618C251.698 51.1618 253.021 51.8761 253.021 51.8761C253.021 51.8761 254.753 52.5947 255.163 52.1156C255.563 51.6365 255.06 51.0376 253.528 50.1992C252.005 49.3652 252.611 47.9279 253.528 47.8081C254.446 47.6883 254.343 47.0895 255.056 46.6104C255.768 46.1313 256.677 44.3346 257.492 44.694C258.302 45.0488 259.019 45.7675 260.035 46.3664C261.05 46.9653 260.133 47.8037 259.937 48.4026C259.732 49.0059 260.137 51.2772 260.444 51.6321C260.752 51.9958 260.141 53.3089 259.331 53.9078C258.516 54.5067 257.403 55.8286 257.705 56.0638C259.244 57.2811 260.963 54.0904 262.281 52.6368C262.431 52.4719 262.568 52.3327 262.684 52.2354C263.397 51.6321 264.109 51.6321 264.314 52.3552C264.515 53.0738 265.637 53.3089 266.657 52.8298C267.672 52.3507 266.657 51.9914 266.554 50.9178C266.452 49.8354 264.822 50.4387 263.905 50.6783C262.992 50.9223 262.279 52.0003 261.976 52.0003C261.669 52.0003 261.669 51.2816 261.869 50.1992C262.074 49.1257 261.469 48.5268 261.464 47.9279C261.464 47.329 261.762 47.329 262.479 46.1313C263.192 44.9291 263.192 46.9697 263.29 48.0432C263.397 49.1212 264.105 48.6465 264.719 48.5223C265.33 48.4026 265.022 46.9697 265.534 46.251C266.038 45.528 267.16 45.4082 268.175 46.4906C269.195 47.5686 269.093 47.2048 270.313 47.6839C271.533 48.163 271.64 48.2828 271.738 49.3608C271.84 50.4387 272.655 50.5541 273.159 50.1948C273.666 49.8354 273.261 48.4026 272.954 47.9235C272.651 47.4444 270.206 46.6104 269.387 45.7675C268.576 44.9291 269.796 44.9291 270.714 44.9291C272.465 44.9291 274.3 44.9735 275.805 44.0763C275.984 43.9693 276.153 43.8541 276.303 43.7313C277.314 42.8929 278.031 42.8929 279.046 42.4138C280.061 41.9347 281.691 41.9302 282.711 42.1742C283.726 42.4093 284.439 41.6907 285.454 41.2116C286.47 40.7325 287.806 37.6139 287.895 40.6127C287.908 40.9987 290.74 41.5665 291.15 41.4467C291.56 41.3269 292.584 41.1717 294.098 40.2445C297.042 38.4479 294.494 37.605 295.621 39.2863C296.018 39.8719 297.251 38.8072 299.384 39.8808C301.522 40.9587 299.384 39.8808 299.994 40.5994C300.604 41.3136 300.912 40.4752 302.332 40.2356C303.757 39.9961 304.675 40.2356 305.588 40.3554C306.501 40.4708 308.536 40.4708 309.453 41.1894C310.371 41.9081 308.848 43.4607 308.335 43.9443C307.828 44.4234 309.15 44.7827 309.556 44.6629C309.961 44.5387 313.319 44.6629 314.842 44.8936C316.369 45.1331 316.984 45.9716 317.692 45.9716C318.4 45.9716 319.522 45.6078 319.927 45.1287C320.333 44.654 322.871 44.41 323.686 44.2903C324.505 44.1705 326.741 44.2903 327.048 44.5254C327.351 44.7649 327.658 45.9627 327.658 46.9209C327.658 47.8791 328.576 48.7131 329.288 48.8373C330.005 48.9571 331.319 47.4 331.831 47.1604C332.334 46.9209 332.945 48.2384 333.247 47.8791C333.559 47.5198 336.102 47.9944 337.122 47.3956C338.133 46.7967 338.743 47.3956 339.25 47.156C339.763 46.9165 340.573 45.5989 340.573 45.1198C340.573 44.6452 340.983 44.2814 340.573 43.5672C340.168 42.8485 338.743 43.3276 337.215 42.8485C335.688 42.3739 337.278 39.8763 337.723 41.1717C337.981 41.9036 339.344 41.1717 340.364 41.4112C341.384 41.6508 340.978 41.0519 341.486 41.0519C341.994 41.0519 343.824 41.6463 344.835 41.6463C346.032 41.6463 345.587 43.3337 344.435 43.6575C343.901 43.8075 343.424 43.9221 343.214 43.9221C342.604 43.9221 343.009 44.8803 343.521 44.8803C344.029 44.8803 344.737 45.2396 345.454 45.8385C346.171 46.4374 349.319 45.8385 349.72 45.8385C350.13 45.8385 351.35 46.4374 352.57 47.2713C353.856 48.1501 355.413 48.4879 356.964 48.349C357.318 48.3172 357.69 48.2767 358.061 48.2251C359.789 47.9811 362.034 47.9811 362.435 48.3405C362.844 48.6998 363.962 49.0591 364.777 49.8975C365.592 50.7315 366.198 50.3766 367.32 50.2524C368.442 50.1282 369.56 49.8931 370.575 49.8931C371.595 49.8931 374.948 49.7645 375.558 50.8469C376.089 51.7838 377.127 51.1218 377.665 50.1892C377.868 49.8377 378.069 49.529 378.208 49.4051C378.618 49.0502 379.936 49.6447 380.751 50.1193C381.566 50.5984 385.53 50.1193 386.545 50.3589C387.56 50.594 388.985 51.7918 388.175 52.75C387.36 53.7082 388.785 55.385 388.487 56.3388C388.179 57.297 387.364 57.4168 386.549 57.6563C385.739 57.9003 387.364 59.0936 388.081 59.9321C388.794 60.7705 387.676 61.01 386.963 60.6507C386.246 60.2914 384.421 60.7749 382.078 61.4936C379.74 62.2122 378.827 63.6495 376.387 63.7738C373.942 63.8935 374.962 63.654 371.911 63.654C368.861 63.654 368.963 64.6122 368.353 65.8099C367.747 67.0077 368.665 66.7681 368.353 67.7219C368.05 68.6846 367.547 69.7625 367.547 70.601C367.547 71.4394 365.712 71.5592 365.102 72.2778C364.492 72.9965 363.472 74.7887 361.744 76.1062C361.527 76.2732 361.318 76.4516 361.118 76.6358C360.532 77.176 359.527 76.6849 359.918 75.9909C360.729 74.5536 359.005 72.5174 358.899 70.9647C358.796 69.4076 359.411 68.9285 360.417 67.4957C361.437 66.0539 363.877 65.5748 364.897 64.8562C365.913 64.1375 370.076 60.7838 370.076 60.7838C370.076 60.7838 369.261 61.3827 368.246 61.8618C367.226 62.3364 366.011 63.2991 365.196 63.2991C364.381 63.2991 364.692 62.3409 364.585 61.3871C364.479 60.4334 362.55 61.152 361.833 62.1058C361.125 63.064 359.803 63.6629 358.382 64.8606C356.957 66.0584 357.362 65.9386 356.449 66.0584C355.527 66.1781 354.004 65.4639 353.296 64.865C352.579 64.2706 351.876 65.3441 349.636 65.4684C347.4 65.5881 344.848 65.2332 343.842 65.353C342.822 65.4728 340.284 68.9463 338.761 69.5452C337.233 70.144 335.305 71.2265 335.817 72.0605C336.325 72.8989 337.238 71.3374 337.647 71.3374C338.057 71.3374 337.34 73.0187 338.257 73.0187C339.17 73.0187 339.678 72.4153 340.595 72.3C341.513 72.1802 342.225 73.134 342.426 74.4515C342.635 75.7646 342.025 76.847 341.615 78.5239C341.21 80.2007 340.6 81.8732 338.974 83.3105C337.349 84.7478 334.708 87.3829 334.196 88.1015C333.693 88.8202 331.862 88.2257 331.555 87.7422C331.248 87.2631 330.335 88.8202 329.622 89.1839C328.91 89.5432 328.197 90.2619 328.202 91.2201C328.202 92.1739 326.171 92.1783 326.171 92.7772C326.171 93.3716 327.391 95.0485 327.899 95.8869C328.407 96.7209 327.801 99.3604 326.888 99.9593C325.975 100.558 325.57 101.277 324.345 100.443C323.129 99.6044 324.14 99.1208 324.648 97.8078C325.156 96.4902 324.136 95.7716 323.931 95.4122C323.731 95.0529 322.916 96.1309 322.51 96.2507C322.101 96.3749 322.101 95.1727 322.404 94.454C322.711 93.7354 322.203 92.1827 321.896 92.0674C321.593 91.9432 319.66 93.8596 318.845 93.7443C318.03 93.6289 318.734 91.473 319.041 90.8696C319.349 90.2708 318.431 90.7543 317.825 91.3487C317.215 91.9476 315.893 93.2696 315.39 93.1498C314.877 93.03 313.862 94.108 314.677 94.8267C315.492 95.5453 315.799 96.1442 316.307 96.2595C316.815 96.3838 318.137 96.02 318.645 95.9002C319.153 95.7804 320.168 96.7342 319.153 97.8166C318.142 98.8946 316.004 99.0188 316.414 99.7375C316.819 100.456 317.839 101.534 318.654 103.202C319.469 104.879 319.161 106.671 319.371 107.993C319.576 109.306 316.427 112.061 315.51 112.904C314.597 113.742 313.684 115.779 312.161 116.737C310.633 117.699 307.382 118.533 306.87 118.178C306.354 117.819 304.938 118.782 305.04 120.095C305.138 121.412 305.855 121.293 305.855 121.652C305.855 122.011 304.84 123.449 304.434 124.047C304.025 124.642 302.604 124.047 302.804 122.251C303.005 120.454 304.02 119.736 303.918 118.897C303.815 118.063 302.898 117.584 302.292 118.303C302.235 118.37 302.167 118.448 302.089 118.536C300.686 120.119 299.817 122.62 301.379 124.047C302.297 124.886 302.907 126.079 304.131 127.871C305.356 129.668 304.439 131.225 304.131 132.543C303.829 133.86 302.813 133.86 301.998 134.1C301.183 134.335 300.983 134.699 300.676 135.422C300.373 136.14 298.903 139.578 298.703 138.979C298.498 138.381 297.22 134.344 297.22 134.344C297.22 134.344 296.303 132.188 294.98 131.114C293.653 130.041 293.15 129.562 293.15 130.64C293.15 131.713 292.339 133.749 292.339 134.468C292.339 135.187 290.504 132.316 290.504 131.114C290.504 129.921 290.193 127.88 290.295 125.968C290.395 124.02 287.817 126.817 286.963 128.571C286.549 129.422 286.137 130.143 285.931 130.143C285.419 130.143 285.931 126.212 286.024 124.775C286.122 123.338 285.517 122.02 285.209 121.545C284.906 121.066 283.17 119.154 282.867 117.837C282.56 116.519 281.949 117.003 281.339 117.722C280.734 118.44 280.934 118.44 278.498 118.44C276.053 118.44 276.16 120.237 274.935 121.315C273.72 122.393 272.709 124.429 271.284 125.148C269.859 125.866 269.249 126.585 269.249 127.423C269.249 128.262 269.827 131.021 269.525 132.219C269.217 133.417 268.442 134.49 267.73 135.688C267.017 136.886 266.412 138.798 265.802 138.798C265.192 138.798 264.982 137.125 264.982 136.047C264.982 134.974 263.254 132.458 262.849 131.62C262.439 130.782 260.912 127.073 260.912 127.073C260.912 127.073 259.687 123.129 259.79 122.047C259.815 121.785 259.833 121.41 259.847 120.993C259.881 119.962 258.566 119.948 257.55 119.771C256.833 119.651 256.125 118.338 256.227 116.781C256.325 115.224 255.007 115.344 254.29 115.104C253.582 114.865 252.664 112.713 252.157 112.718C251.645 112.718 251.342 112.718 250.941 113.436C250.531 114.155 248.398 114.035 247.886 114.035C247.374 114.035 244.328 113.92 243.41 113.556C242.497 113.201 241.473 111.05 240.965 110.81C240.458 110.571 238.935 112.128 238.325 111.892C237.715 111.653 236.49 110.455 235.167 109.737C233.845 109.018 233.439 107.345 232.927 106.267C232.419 105.194 230.687 106.866 230.892 108.064C231.097 109.257 233.337 110.814 233.337 111.653C233.337 112.487 233.747 112.731 234.869 113.804C235.991 114.878 235.074 115.481 235.782 115.716C236.494 115.956 237.51 114.758 238.529 114.159C239.549 113.556 239.442 112.722 239.955 112.722C240.462 112.722 240.36 114.275 241.17 114.394C241.985 114.514 244.123 115.947 244.631 116.905C245.143 117.864 244.127 118.462 243.718 119.296C243.312 120.135 242.092 122.53 241.077 123.493C240.066 124.451 238.944 125.764 237.421 126.124C235.893 126.487 235.693 127.441 234.472 127.565C233.252 127.685 229.899 129.606 229.387 129.965C228.879 130.325 226.131 131.283 225.321 130.923C224.506 130.564 224.199 128.173 223.896 126.376C223.584 124.584 223.183 123.626 222.88 122.907C222.573 122.193 220.738 120.277 220.329 119.917C219.919 119.558 218.904 116.688 218.801 115.49C218.699 114.292 217.581 114.772 217.376 113.458C217.171 112.141 216.045 110.349 215.844 109.506C215.644 108.667 213.604 109.63 212.798 109.75C211.983 109.874 210.46 109.036 210.656 107.115C210.861 105.203 211.676 105.203 212.691 105.203C213.711 105.203 213.301 104.599 214.317 103.402C215.328 102.204 215.639 99.8129 215.733 98.2558C215.835 96.6987 215.016 97.4174 214.21 97.6569C213.395 97.8965 212.175 98.2558 211.769 98.1405C211.36 98.0207 209.734 97.4218 209.427 97.7811C209.124 98.1405 207.396 97.9009 206.987 97.3065C206.581 96.7032 204.542 95.9889 204.337 95.5098C204.136 95.0307 204.337 92.1606 203.923 91.4375C203.517 90.7233 202.604 91.5617 202.097 92.0364C201.589 92.5155 200.168 92.8792 200.574 93.2341C200.983 93.5934 202.302 94.3121 202.204 95.2659C202.101 96.2241 201.188 96.468 200.681 96.9471C200.173 97.4262 198.325 99.3205 198.017 98.726C197.71 98.1272 197.519 94.321 197.216 93.8374C196.909 93.3628 195.996 92.165 195.688 91.087C195.386 90.0135 194.263 89.6541 193.551 88.8113C192.838 87.9817 190.803 86.6642 189.988 85.7104C189.173 84.7522 187.748 84.0336 187.65 85.2313C187.548 86.4291 189.075 86.6642 189.685 87.8619C190.3 89.0597 191.623 89.7784 192.331 90.1332C192.65 90.2943 193.216 90.6953 193.743 91.0887C194.313 91.515 194.156 92.4029 193.453 92.2848C192.74 92.1694 193.858 94.8666 193.76 95.7006C193.658 96.539 192.437 95.3945 192.237 94.4407C192.032 93.4825 191.418 92.4046 191.017 92.0452C190.612 91.6903 187.962 90.7321 187.557 90.4926C187.147 90.253 185.419 88.9399 185.219 87.8619C185.014 86.7884 183.486 86.6686 183.081 86.9082C182.671 87.1477 181.148 88.4608 180.436 88.4608C179.728 88.4608 178.605 87.8664 177.79 87.7466C176.98 87.6313 176.878 89.3037 176.575 90.2619C176.272 91.2201 174.949 90.5015 174.241 91.3443C173.529 92.1827 172.304 93.0212 172.616 93.7398C172.923 94.4585 173.431 94.454 172.518 95.0529C171.6 95.6518 171.093 96.8496 170.18 96.9693C169.267 97.0891 168.047 97.5682 167.534 97.2089C167.027 96.8496 166.622 98.4066 166.319 98.766C166.011 99.1253 165.504 97.688 164.996 97.0935C164.488 96.4947 163.17 96.9738 162.76 96.854C162.355 96.7342 161.945 95.6607 161.438 95.1816C160.926 94.7025 161.028 93.6245 161.438 93.2652C161.839 92.9058 162.248 92.307 161.946 91.2334C161.638 90.1554 161.433 87.7599 162.449 87.2853C163.469 86.8061 165.905 87.2853 167.125 87.2853C168.349 87.2853 170.438 87.7777 170.79 87.0413C171.296 85.9672 171.496 84.7787 171.397 83.7039C171.396 83.696 171.394 83.6883 171.391 83.6809ZM209.707 62.5671C209.36 63.6939 212.054 64.5989 212.558 63.7604C213.065 62.922 210.215 60.8903 209.707 62.5671ZM206.278 91.5431C206.278 91.5423 206.28 91.5423 206.28 91.543C206.484 92.0082 207.496 90.8208 208.309 90.8208C209.124 90.8208 210.954 91.1757 211.467 90.3373C211.97 89.4989 213.595 89.3791 214.922 89.6142C216.245 89.8538 217.367 90.9318 218.28 91.0471C219.198 91.1669 221.634 90.9273 222.448 90.6878C223.259 90.4482 223.059 88.7669 221.736 87.9374C220.413 87.0989 219.291 85.7858 218.071 85.3067C216.846 84.8321 216.441 84.353 217.153 84.1134C217.866 83.8739 218.779 82.9157 217.759 82.9157C216.744 82.9157 215.826 83.275 215.724 83.8739C215.626 84.4727 215.011 85.1914 214.611 85.431C214.201 85.6749 213.186 86.6287 212.878 85.9145C212.571 85.1958 211.458 83.0399 210.946 82.9245C210.442 82.8003 209.623 82.9245 209.017 84.1223C208.407 85.32 207.695 86.5178 207.089 86.9969C206.479 87.476 205.668 88.9133 206.278 89.1529C206.873 89.3863 206.309 91.4394 206.28 91.5442C206.279 91.545 206.278 91.544 206.278 91.5431ZM229.563 83.1397C229.561 83.1384 229.559 83.1383 229.558 83.1394C228.326 84.1063 227.935 85.4138 228.443 86.2516C228.955 87.0901 230.375 89.7207 231.088 89.9602C231.8 90.1998 234.343 90.6745 233.328 91.7524C232.313 92.8304 232.112 93.1897 231.195 93.07C230.277 92.9546 230.687 95.9446 231.4 96.1841C232.112 96.4237 234.245 97.2621 234.962 97.3774C235.67 97.4972 238.013 97.1335 237.91 96.4193C237.804 95.7006 237.394 92.8304 236.583 92.1118C235.768 91.3887 237.701 90.67 237.189 90.0756C236.681 89.4767 235.973 89.7207 235.564 89.002C235.154 88.2834 234.953 87.5692 234.343 87.0856C233.733 86.6065 233.226 87.5692 233.323 86.2516C233.426 84.9341 234.851 84.0957 235.457 84.8143C236.067 85.533 237.902 85.1692 238.307 84.8143C238.716 84.455 237.492 83.377 237.185 82.6584C236.882 81.9442 234.847 81.3453 234.539 81.5848C234.232 81.8288 233.426 82.5475 232.611 83.1419C231.802 83.74 230.179 82.6657 229.567 83.14C229.566 83.1411 229.564 83.141 229.563 83.1397Z" fill="#00A58D"></path>
<path d="M241.224 49.2521C241.224 49.2536 241.223 49.255 241.222 49.2561C240.469 50.1412 238.885 49.8528 237.768 49.139C236.646 48.4204 235.328 48.305 234.717 48.061C234.107 47.8259 234.82 46.3842 235.528 46.0293C236.24 45.67 238.173 44.5876 239.594 43.8689C241.014 43.1503 241.42 41.7129 242.44 41.7129C243.455 41.7129 248.336 40.5108 248.946 40.7503C249.551 40.9899 252.504 41.225 253.119 40.2668C253.729 39.3086 255.857 39.9074 255.354 40.7459C254.846 41.5843 253.016 43.5007 251.796 43.1414C250.58 42.7821 247.116 42.9063 245.592 43.1458C244.069 43.3854 242.644 44.4633 241.322 45.3018C240.004 46.1446 240.306 47.0984 240.814 47.2182C241.321 47.3379 241.829 48.5294 241.225 49.2482C241.224 49.2493 241.224 49.2507 241.224 49.2521Z" fill="#00A58D"></path>
<path d="M340.823 89.8627C340.07 90.395 340.515 92.4977 339.91 93.935C339.3 95.3679 338.792 96.6854 338.391 96.6854C337.981 96.6854 335.848 97.6481 335.238 98.3667C334.628 99.0854 331.68 97.7723 331.27 98.3667C330.865 98.9656 330.054 99.6843 329.542 100.163C329.03 100.642 327.61 100.283 327.912 101.72C328.22 103.153 328.932 104.471 329.547 104.471C330.152 104.471 330.967 103.992 330.967 102.67C330.967 101.357 332.388 102.67 333.101 102.55C333.818 102.43 334.214 101.592 334.521 100.634C334.824 99.6798 334.116 101.113 335.336 101.476C336.556 101.831 336.962 100.873 336.962 100.514C336.962 100.159 339.197 99.5556 339.607 99.1963C340.012 98.837 341.638 98.2381 341.744 97.759C341.842 97.2799 341.744 94.5295 342.248 94.2899C342.76 94.0459 343.468 94.0459 342.653 92.3735C341.838 90.7011 341.838 89.144 340.823 89.8627Z" fill="#00A58D"></path>
<path d="M318.467 113.458C316.962 113.738 316.031 117.535 317.251 117.416C318.471 117.291 319.794 113.219 318.467 113.458Z" fill="#00A58D"></path>
<path d="M339.077 197.472C339.082 197.471 339.086 197.465 339.086 197.46C339.082 196.26 338.479 198.78 338.066 197.709C337.661 196.636 338.476 194.839 337.456 195.553C336.44 196.277 335.933 196.871 335.83 197.474C335.728 198.069 333.902 198.308 333.996 197.714C334.098 197.115 334.811 195.678 334.098 195.083C333.381 194.484 332.165 194.245 331.252 193.886C330.335 193.531 331.355 192.328 328.91 192.932C328.742 192.973 328.581 193.015 328.427 193.058C326.557 193.573 323.761 192.814 322.608 194.373C321.307 196.115 319.554 196.952 317.42 197.368C316.81 197.492 315.799 198.446 314.882 198.805C313.96 199.169 312.441 199.528 311.827 198.929C311.217 198.331 310.197 197.257 310.504 196.538C310.807 195.82 313.047 194.861 312.232 193.659C311.413 192.466 310.91 192.222 310.803 191.508C310.7 190.794 311.105 190.434 309.885 188.997C308.665 187.564 308.968 185.887 309.476 185.648C309.988 185.404 307.783 183.975 307.378 183.372C306.968 182.773 308.349 180.621 309.164 180.018C309.979 179.419 312.415 177.144 313.127 177.144C313.835 177.144 314.953 177.498 315.67 176.9C316.383 176.301 318.516 176.536 318.516 176.057C318.516 175.578 317.924 171.727 318.427 171.128C318.939 170.529 321.869 171.865 322.172 171.385C322.475 170.906 322.982 168.875 323.588 168.515C324.203 168.152 324.71 167.313 325.628 168.515C326.545 169.709 327.458 170.188 327.859 168.99C328.269 167.792 327.961 168.152 328.874 167.074C329.787 165.996 328.767 164.199 329.689 165.277C330.164 165.835 330.976 165.196 331.612 164.832C331.647 164.813 331.684 164.802 331.724 164.802C332.335 164.802 332.945 165.996 333.247 165.996C333.555 165.996 336.298 165.272 336.81 166.111C337.318 166.949 335.389 169.225 336.098 170.063C336.81 170.902 338.235 171.377 339.251 172.1C340.27 172.814 341.491 174.491 341.998 173.058C342.506 171.621 343.521 169.465 342.813 168.387C342.101 167.309 343.014 163.835 343.316 163.6C343.624 163.36 344.136 166.35 345.151 167.668C346.175 168.985 347.191 169.939 347.698 171.377C348.206 172.809 348.309 175.329 349.226 176.163C350.139 177.002 353.662 176.935 353.555 178.013C353.461 179.091 353.902 181.185 355.024 183.221C356.146 185.257 358.306 190.022 358.306 191.934C358.306 193.85 355.033 196.028 354.12 197.465C353.207 198.898 352.904 200.819 352.499 201.533C352.089 202.252 352.294 202.132 350.767 202.611C349.248 203.09 348.13 204.532 347.721 204.049C347.316 203.574 345.886 202.736 345.481 203.334C345.071 203.933 344.568 205.246 343.855 203.814C343.138 202.376 341.513 202.616 341.206 202.376C340.903 202.141 340.903 201.418 340.903 200.22C340.903 199.027 339.58 198.907 339.469 198.548C339.372 198.192 339.073 197.84 339.068 197.484C339.068 197.478 339.072 197.473 339.077 197.472Z" fill="#00A58D"></path>
<path d="M287.276 141.018C287.276 141.017 287.274 141.016 287.273 141.016C286.015 141.321 289.106 143.891 289.413 144.25C289.72 144.609 292.468 147.359 292.473 148.677C292.473 149.994 293.363 154.089 293.871 154.568C294.383 155.047 297.87 155.855 298.275 156.813C298.685 157.767 299.598 158.006 299.598 156.689C299.598 155.375 299.798 153.814 300.302 153.1C300.814 152.377 300.604 151.303 299.794 151.427C298.983 151.547 298.266 149.87 296.944 148.797C295.621 147.719 294.606 147.004 293.381 145.447C292.156 143.89 290.629 142.937 289.818 142.098C289.005 141.261 287.787 140.906 287.278 141.02C287.277 141.02 287.276 141.019 287.276 141.018Z" fill="#00A58D"></path>
<path d="M293.139 136.775C292.049 135.354 289.821 135.704 290.825 137.187C291.235 137.786 292.05 137.427 292.553 139.578C293.065 141.734 294.085 143.89 294.494 144.729C294.9 145.563 296.632 146.756 297.242 147.355C297.852 147.954 298.765 147.115 298.364 146.397C297.955 145.678 297.14 144.6 297.033 143.762C296.935 142.928 296.418 141.606 295.608 140.173C294.797 138.74 294.085 138.381 293.573 137.422C293.472 137.233 293.319 137.01 293.139 136.775Z" fill="#00A58D"></path>
<path d="M299.796 157.287C299.795 157.287 299.793 157.288 299.793 157.289C299.051 158.38 299.995 159.204 300.302 159.439C300.604 159.678 301.731 159.914 302.746 159.794C303.766 159.674 305.182 159.315 304.069 158.596C302.947 157.877 301.629 158.596 301.219 157.642C300.814 156.685 300.205 156.688 299.8 157.286C299.799 157.287 299.798 157.287 299.796 157.287Z" fill="#00A58D"></path>
<path d="M305.695 158.24C305.695 158.238 305.693 158.238 305.692 158.238C304.979 158.597 303.865 158.832 304.679 159.674C305.494 160.513 306.002 160.867 307.227 160.752C308.442 160.628 310.282 161.466 310.375 160.752C310.482 160.033 309.257 158.955 308.75 158.96C308.245 158.96 305.724 158.249 305.695 158.241C305.694 158.241 305.695 158.241 305.695 158.24Z" fill="#00A58D"></path>
<path d="M315.666 162.181C315.439 163.25 317.193 163.733 317.291 162.54C317.394 161.342 315.871 161.222 315.666 162.181Z" fill="#00A58D"></path>
<path d="M321.059 163.014C321.103 163.386 321.304 163.487 321.568 163.442C322.911 163.211 324.92 162.576 324.92 161.213C324.92 160.375 323.29 159.301 322.68 160.255C322.07 161.213 320.956 162.172 321.059 163.01V163.014Z" fill="#00A58D"></path>
<path d="M316.569 149.617C316.567 149.614 316.563 149.614 316.56 149.615C315.956 149.851 316.057 150.455 315.857 151.645C315.652 152.842 314.735 153.681 315.55 154.28C316.365 154.879 317.888 152.244 318.297 153.082C318.703 153.92 318.195 154.28 318.912 155.358C319.64 156.459 320.968 155.252 320.549 154C320.367 153.456 320.103 152.965 319.723 152.723C318.605 152.004 317.888 151.174 319.21 151.41C320.538 151.645 321.25 151.05 320.943 150.332C320.64 149.613 318.703 149.972 318.097 150.092C317.492 150.206 316.586 149.628 316.57 149.617C316.569 149.617 316.569 149.617 316.569 149.617Z" fill="#00A58D"></path>
<path d="M319.313 147.457C318.073 147.947 316.399 148.655 317.727 148.779C317.84 148.789 317.962 148.788 318.093 148.775C319.206 148.655 321.553 148.291 322.056 148.291C322.568 148.291 323.276 146.734 322.871 146.734C322.461 146.734 319.62 147.333 319.313 147.457Z" fill="#00A58D"></path>
<path d="M327.543 145.527C326.612 145.061 324.906 149.48 326.126 149.839C327.347 150.194 328.26 145.887 327.543 145.527Z" fill="#00A58D"></path>
<path d="M313.615 139.206C313.613 139.203 313.613 139.199 313.612 139.196C313.566 138.359 311.983 139.443 311.88 140.279C311.782 141.118 313.007 141.832 311.07 141.836C309.142 141.836 309.039 143.633 308.634 143.997C308.229 144.356 307.819 144.471 307.004 144.715C306.189 144.951 305.993 145.909 305.788 146.512C305.588 147.111 304.163 145.439 303.757 145.913C303.352 146.397 303.655 148.668 304.372 150.584C305.085 152.496 306.915 153.694 307.427 153.694C307.935 153.694 308.955 153.694 309.663 153.929C310.371 154.169 312.713 154.404 312.611 153.33C312.508 152.257 312.303 150.58 313.319 149.502C314.339 148.424 315.354 147.825 314.846 146.268C314.334 144.715 313.314 143.757 314.027 143.039C314.739 142.32 315.554 142.08 315.55 141.482C315.55 140.883 313.824 143.161 313.617 139.215C313.617 139.212 313.616 139.209 313.615 139.206Z" fill="#00A58D"></path>
<path d="M318.578 122.32C318.578 122.321 318.577 122.322 318.576 122.322C317.867 122.325 318.679 123.64 317.665 124.478C316.65 125.316 315.528 125.676 316.138 127.113C316.748 128.546 318.89 129.624 318.378 130.223C317.87 130.817 316.347 132.019 316.142 133.093C315.942 134.166 318.587 131.412 319.295 130.334C320.008 129.26 321.433 129.859 321.736 129.256C321.887 128.952 321.712 128.585 321.384 128.498C320.988 128.393 320.47 128.241 320.003 128.058C319.086 127.698 317.968 129.016 318.476 127.104C318.988 125.188 320.511 125.547 320.204 124.11C319.901 122.676 318.886 122.319 318.58 122.317C318.579 122.317 318.578 122.318 318.578 122.32Z" fill="#00A58D"></path>
<path d="M319.507 132.733C319.505 132.733 319.504 132.734 319.503 132.734C319.154 132.887 318.286 135.009 319.407 135.005C320.524 135.005 322.453 135.364 322.047 134.765C321.647 134.167 320.628 132.257 319.511 132.733C319.51 132.733 319.508 132.733 319.507 132.733Z" fill="#00A58D"></path>
<path d="M322.858 130.932C322.448 130.901 321.134 133.448 322.96 133.323C324.795 133.208 324.283 131.048 322.858 130.932Z" fill="#00A58D"></path>
<path d="M323.174 135.368C323.172 135.366 323.168 135.367 323.166 135.369C321.745 137.519 321.842 137.041 320.827 136.562C319.812 136.087 318.182 137.64 318.489 138.243C318.792 138.838 321.036 138.119 321.549 139.197C322.052 140.27 322.052 140.39 323.072 140.151C324.087 139.911 325.107 138.239 324.804 137.4C324.497 136.562 323.174 135.368 323.174 135.368Z" fill="#00A58D"></path>
<path d="M330.099 149.482C330.099 149.481 330.098 149.481 330.097 149.482C329.328 150.38 328.978 150.443 330.709 150.797C332.432 151.157 332.945 151.157 332.237 152.11C331.524 153.069 331.016 154.266 331.631 154.382C332.241 154.502 334.067 153.903 334.267 154.382C334.472 154.865 333.866 154.981 335.902 155.34C337.937 155.699 338.342 156.538 338.747 157.012C339.157 157.491 340.377 159.044 339.562 159.044C338.747 159.044 337.834 160.242 338.444 160.362C339.05 160.481 340.885 160.002 340.987 160.362C341.09 160.721 342.11 162.997 343.12 162.877C344.14 162.757 344.746 160.597 345.254 160.002C345.761 159.403 347.796 159.04 347.997 160.118C348.206 161.196 348.812 162.274 350.036 162.992C351.257 163.711 352.682 164.425 352.784 163.826C352.882 163.227 352.17 160.956 351.355 160.597C350.544 160.242 349.119 158.206 349.119 157.367C349.119 156.533 347.899 156.289 347.289 155.695C346.674 155.1 346.167 153.419 344.639 153.06C343.112 152.7 342.706 152.106 341.081 151.152C339.446 150.194 335.79 150.194 335.688 150.797C335.585 151.396 335.688 150.797 334.463 150.323C333.247 149.844 332.334 150.323 332.027 149.484C331.72 148.646 331.008 148.411 330.1 149.483C330.1 149.483 330.099 149.483 330.099 149.482Z" fill="#00A58D"></path>
</g>
</g>
<path d="M206.796 243.768C205.137 233.031 203.444 222.262 201.038 211.657C195.579 187.598 191.599 171.01 160.898 174.024C138.511 176.22 135.732 198.413 132.043 215.761C130.239 224.24 128.303 233.874 127.289 242.435C127.02 244.697 126.511 245.992 128.328 247.875C132.894 252.608 140.973 243.965 145.367 244.199C148.484 244.368 150.095 246.884 152.639 247.925C160.44 251.12 162.133 244.907 167.182 245.005C170.452 245.071 171.64 247.579 174.427 248.348C182.207 250.495 183.943 243.94 189.419 244.175C191.321 244.257 192.68 245.717 194.313 246.486C198.156 248.303 203.205 250.984 205.868 247.53C206.697 246.457 206.992 245.083 206.787 243.763L206.796 243.768ZM166.938 221.345C153.981 221.345 143.478 212.221 143.478 200.966C143.478 189.712 153.981 180.587 166.938 180.587C179.895 180.587 190.398 189.712 190.398 200.966C190.398 212.221 179.895 221.345 166.938 221.345Z" fill="url(#paint0_linear_521_4382)"></path>
<path d="M143.478 200.966C143.478 189.712 153.981 180.587 166.938 180.587" stroke="url(#paint1_linear_521_4382)"></path>
<path opacity="0.4" d="M140.152 267.415C143.261 267.415 145.782 264.994 145.782 262.007C145.782 259.02 143.261 256.599 140.152 256.599C137.042 256.599 134.521 259.02 134.521 262.007C134.521 264.994 137.042 267.415 140.152 267.415Z" fill="#3BF7BF"></path>
<path opacity="0.5" d="M166.426 267.415C169.536 267.415 172.057 264.994 172.057 262.007C172.057 259.02 169.536 256.599 166.426 256.599C163.316 256.599 160.796 259.02 160.796 262.007C160.796 264.994 163.316 267.415 166.426 267.415Z" fill="#3BF7BF"></path>
<path d="M192.703 267.415C195.812 267.415 198.333 264.994 198.333 262.007C198.333 259.02 195.812 256.599 192.703 256.599C189.593 256.599 187.072 259.02 187.072 262.007C187.072 264.994 189.593 267.415 192.703 267.415Z" fill="#3BF7BF"></path>
<path d="M171.926 207.654V193.358H175.562V207.654H171.926Z" fill="#3BF7BF"></path>
<path d="M156.372 207.654L161.187 193.358H164.515V196.469H163.376L160.196 207.654H156.372ZM159.185 204.523L159.998 201.898H166.824L167.636 204.523H159.185ZM166.636 207.654L163.455 196.469V193.358H165.645L170.46 207.654H166.636Z" fill="#3BF7BF"></path>
<path d="M127.289 242.435C127.02 244.697 126.511 245.992 128.328 247.875C132.894 252.608 140.973 243.965 145.367 244.199" stroke="url(#paint2_linear_521_4382)"></path>
<path d="M201.038 211.657C195.579 187.598 191.599 171.01 160.898 174.024" stroke="url(#paint3_linear_521_4382)"></path>
<g clip-path="url(#clip0_521_4382)">
<g class="pie-chart" opacity="0.67">
<path d="M87.4401 77.8151V59.8251C64.6401 59.8251 46.1401 78.2752 46.0601 101.065H64.0501C64.1201 88.2152 74.5701 77.8051 87.4401 77.8051V77.8151Z" fill="url(#paint4_linear_521_4382)"></path>
<path d="M128.82 101.205C128.82 83.1252 117.23 67.7552 101.07 62.1252L95.1401 79.1152C104.28 82.2952 110.83 90.9752 110.83 101.205C110.83 113.485 101.36 123.555 89.3201 124.515V142.535C111.31 141.555 128.82 123.435 128.82 101.205Z" fill="url(#paint5_linear_521_4382)"></path>
<path d="M64.1901 103.725H46.1501C47.4501 125.295 65.2501 142.385 87.1001 142.575V124.585C75.2001 124.405 65.4401 115.345 64.1901 103.735V103.725Z" fill="url(#paint6_linear_521_4382)"></path>
</g>
<g opacity="0.55">
<path d="M61.2901 121.695L45.8601 137.135H22.0801" stroke="white" stroke-width="0.5" stroke-miterlimit="10" stroke-linecap="round"></path>
<path d="M22.0801 139.785H46.1501" stroke="white" stroke-width="0.5" stroke-miterlimit="10" stroke-linecap="round"></path>
<path d="M22.0801 141.855H46.1501" stroke="white" stroke-width="0.5" stroke-miterlimit="10" stroke-linecap="round"></path>
<path d="M22.0801 143.925H39.0801" stroke="white" stroke-width="0.5" stroke-miterlimit="10" stroke-linecap="round"></path>
</g>
<g opacity="0.55">
<path d="M107.5 76.0951L130.77 56.7952H154.54" stroke="white" stroke-width="0.5" stroke-miterlimit="10" stroke-linecap="round"></path>
<path d="M154.54 50.6651H130.48" stroke="white" stroke-width="0.5" stroke-miterlimit="10" stroke-linecap="round"></path>
<path d="M154.54 52.7352H130.48" stroke="white" stroke-width="0.5" stroke-miterlimit="10" stroke-linecap="round"></path>
<path d="M142.95 54.8051H130.48" stroke="white" stroke-width="0.5" stroke-miterlimit="10" stroke-linecap="round"></path>
</g>
<g opacity="0.55">
<path d="M61.29 76.0951L38.03 56.7952H14.25" stroke="white" stroke-width="0.5" stroke-miterlimit="10" stroke-linecap="round"></path>
<path d="M14.25 50.6651H38.32" stroke="white" stroke-width="0.5" stroke-miterlimit="10" stroke-linecap="round"></path>
<path d="M14.25 52.7352H38.32" stroke="white" stroke-width="0.5" stroke-miterlimit="10" stroke-linecap="round"></path>
<path d="M14.25 54.8051H30.07" stroke="white" stroke-width="0.5" stroke-miterlimit="10" stroke-linecap="round"></path>
</g>
</g>
<g clip-path="url(#clip1_521_4382)">
<g class="donut1" opacity="0.67">
<path d="M213.47 83.6C213.47 74.53 207.66 66.82 199.55 64L196.57 72.52C201.15 74.11 204.44 78.47 204.44 83.6C204.44 89.76 199.69 94.81 193.65 95.29V104.33C204.68 103.84 213.46 94.75 213.46 83.6H213.47Z" fill="url(#paint7_linear_521_4382)"></path>
<path d="M181.05 84.87H172C172.65 95.69 181.58 104.26 192.54 104.36V95.33C186.57 95.24 181.68 90.7 181.05 84.87Z" fill="url(#paint8_linear_521_4382)"></path>
</g>
<g class="donut2" opacity="0.67">
<path d="M250.12 79.63C250.57 80.87 250.82 82.2 250.82 83.6C250.82 89.76 246.07 94.81 240.03 95.29V104.33C251.06 103.84 259.84 94.75 259.84 83.6C259.84 80.41 259.11 77.39 257.82 74.69L250.12 79.63Z" fill="url(#paint9_linear_521_4382)"></path>
<path d="M227.41 84.87H218.36C219.01 95.69 227.94 104.26 238.9 104.36V95.33C232.93 95.24 228.04 90.7 227.41 84.87Z" fill="url(#paint10_linear_521_4382)"></path>
</g>
<g class="donut3" opacity="0.67">
<path d="M306.2 83.6C306.2 74.53 300.39 66.82 292.28 64L289.3 72.52C293.88 74.11 297.17 78.47 297.17 83.6C297.17 89.76 292.42 94.81 286.38 95.29V104.33C297.41 103.84 306.19 94.75 306.19 83.6H306.2Z" fill="url(#paint11_linear_521_4382)"></path>
<path d="M265.45 83.6C265.45 74.53 271.26 66.82 279.37 64L282.35 72.52C277.77 74.11 274.48 78.47 274.48 83.6C274.48 89.76 279.23 94.81 285.27 95.29V104.33C274.24 103.84 265.46 94.75 265.46 83.6H265.45Z" fill="url(#paint12_linear_521_4382)"></path>
</g>
<g opacity="0.54">
<path d="M211.87 119.66H173.2C172.609 119.66 172.13 120.139 172.13 120.73V121.33C172.13 121.921 172.609 122.4 173.2 122.4H211.87C212.461 122.4 212.94 121.921 212.94 121.33V120.73C212.94 120.139 212.461 119.66 211.87 119.66Z" fill="#16FFB9" fill-opacity="0.39"></path>
<path d="M211.87 125.27H173.2C172.609 125.27 172.13 125.749 172.13 126.34V126.94C172.13 127.531 172.609 128.01 173.2 128.01H211.87C212.461 128.01 212.94 127.531 212.94 126.94V126.34C212.94 125.749 212.461 125.27 211.87 125.27Z" fill="#16FFB9" fill-opacity="0.39"></path>
<path d="M200.54 130.89H173.2C172.609 130.89 172.13 131.369 172.13 131.96V132.56C172.13 133.151 172.609 133.63 173.2 133.63H200.54C201.131 133.63 201.61 133.151 201.61 132.56V131.96C201.61 131.369 201.131 130.89 200.54 130.89Z" fill="#16FFB9" fill-opacity="0.39"></path>
</g>
<g opacity="0.54">
<path d="M258.08 119.66H219.41C218.819 119.66 218.34 120.139 218.34 120.73V121.33C218.34 121.921 218.819 122.4 219.41 122.4H258.08C258.671 122.4 259.15 121.921 259.15 121.33V120.73C259.15 120.139 258.671 119.66 258.08 119.66Z" fill="#16FFB9" fill-opacity="0.39"></path>
<path d="M258.08 125.27H219.41C218.819 125.27 218.34 125.749 218.34 126.34V126.94C218.34 127.531 218.819 128.01 219.41 128.01H258.08C258.671 128.01 259.15 127.531 259.15 126.94V126.34C259.15 125.749 258.671 125.27 258.08 125.27Z" fill="#16FFB9" fill-opacity="0.39"></path>
<path d="M246.75 130.89H219.41C218.819 130.89 218.34 131.369 218.34 131.96V132.56C218.34 133.151 218.819 133.63 219.41 133.63H246.75C247.341 133.63 247.82 133.151 247.82 132.56V131.96C247.82 131.369 247.341 130.89 246.75 130.89Z" fill="#16FFB9" fill-opacity="0.39"></path>
</g>
<g opacity="0.54">
<path d="M304.29 119.66H265.62C265.029 119.66 264.55 120.139 264.55 120.73V121.33C264.55 121.921 265.029 122.4 265.62 122.4H304.29C304.881 122.4 305.36 121.921 305.36 121.33V120.73C305.36 120.139 304.881 119.66 304.29 119.66Z" fill="#16FFB9" fill-opacity="0.39"></path>
<path d="M304.29 125.27H265.62C265.029 125.27 264.55 125.749 264.55 126.34V126.94C264.55 127.531 265.029 128.01 265.62 128.01H304.29C304.881 128.01 305.36 127.531 305.36 126.94V126.34C305.36 125.749 304.881 125.27 304.29 125.27Z" fill="#16FFB9" fill-opacity="0.39"></path>
<path d="M292.96 130.89H265.62C265.029 130.89 264.55 131.369 264.55 131.96V132.56C264.55 133.151 265.029 133.63 265.62 133.63H292.96C293.551 133.63 294.03 133.151 294.03 132.56V131.96C294.03 131.369 293.551 130.89 292.96 130.89Z" fill="#16FFB9" fill-opacity="0.39"></path>
</g>
</g>
<defs>
<linearGradient id="paint0_linear_521_4382" x1="166.932" y1="173.671" x2="166.932" y2="249.294" gradientUnits="userSpaceOnUse">
<stop stop-color="#3BF7BF" stop-opacity="0.16"></stop>
<stop offset="1" stop-color="#5DFAC9"></stop>
</linearGradient>
<linearGradient id="paint1_linear_521_4382" x1="144.38" y1="201.872" x2="169.117" y2="182.12" gradientUnits="userSpaceOnUse">
<stop stop-color="#3BF7BF"></stop>
<stop offset="1" stop-color="#239170" stop-opacity="0"></stop>
</linearGradient>
<linearGradient id="paint2_linear_521_4382" x1="123.384" y1="244.641" x2="135.814" y2="255.162" gradientUnits="userSpaceOnUse">
<stop stop-color="#3BF7BF"></stop>
<stop offset="1" stop-color="#239170" stop-opacity="0"></stop>
</linearGradient>
<linearGradient id="paint3_linear_521_4382" x1="180.968" y1="173.671" x2="201.147" y2="211.462" gradientUnits="userSpaceOnUse">
<stop stop-color="#3BF7BF"></stop>
<stop offset="1" stop-color="#239170" stop-opacity="0"></stop>
</linearGradient>
<linearGradient id="paint4_linear_521_4382" x1="66.7501" y1="149.765" x2="66.7501" y2="44.3251" gradientUnits="userSpaceOnUse">
<stop stop-color="white"></stop>
<stop offset="1" stop-color="#00A58D" stop-opacity="0.1"></stop>
</linearGradient>
<linearGradient id="paint5_linear_521_4382" x1="109.07" y1="149.765" x2="109.07" y2="44.3252" gradientUnits="userSpaceOnUse">
<stop stop-color="white"></stop>
<stop offset="1" stop-color="#00A58D" stop-opacity="0.1"></stop>
</linearGradient>
<linearGradient id="paint6_linear_521_4382" x1="66.6201" y1="149.765" x2="66.6201" y2="44.3252" gradientUnits="userSpaceOnUse">
<stop stop-color="white"></stop>
<stop offset="1" stop-color="#00A58D" stop-opacity="0.1"></stop>
</linearGradient>
<linearGradient id="paint7_linear_521_4382" x1="203.56" y1="107.96" x2="203.56" y2="55.07" gradientUnits="userSpaceOnUse">
<stop stop-color="white"></stop>
<stop offset="1" stop-color="#16FFB9" stop-opacity="0.08"></stop>
</linearGradient>
<linearGradient id="paint8_linear_521_4382" x1="182.27" y1="107.96" x2="182.27" y2="55.07" gradientUnits="userSpaceOnUse">
<stop stop-color="white"></stop>
<stop offset="1" stop-color="#3BF7BF" stop-opacity="0.08"></stop>
</linearGradient>
<linearGradient id="paint9_linear_521_4382" x1="249.93" y1="107" x2="249.93" y2="68.13" gradientUnits="userSpaceOnUse">
<stop stop-color="white"></stop>
<stop offset="1" stop-color="#16FFB9" stop-opacity="0.08"></stop>
</linearGradient>
<linearGradient id="paint10_linear_521_4382" x1="228.63" y1="107.96" x2="228.63" y2="55.07" gradientUnits="userSpaceOnUse">
<stop stop-color="white"></stop>
<stop offset="1" stop-color="#3BF7BF" stop-opacity="0.08"></stop>
</linearGradient>
<linearGradient id="paint11_linear_521_4382" x1="296.29" y1="64" x2="296.29" y2="64" gradientUnits="userSpaceOnUse">
<stop stop-color="white"></stop>
<stop offset="1" stop-color="#16FFB9" stop-opacity="0.3"></stop>
</linearGradient>
<linearGradient id="paint12_linear_521_4382" x1="275.36" y1="107.96" x2="275.36" y2="55.07" gradientUnits="userSpaceOnUse">
<stop stop-color="white"></stop>
<stop offset="1" stop-color="#00A58D" stop-opacity="0.1"></stop>
</linearGradient>
<clipPath id="clip0_521_4382">
<rect width="140.79" height="93.76" fill="white" transform="translate(14 50.4151)"></rect>
</clipPath>
<clipPath id="clip1_521_4382">
<rect width="134.2" height="69.62" fill="white" transform="translate(172 64)"></rect>
</clipPath>

  
  <mask id="pie-sweep" maskUnits="userSpaceOnUse" x="0" y="0" width="334" height="268">
    <circle cx="87" cy="101" r="50" fill="none" stroke="white" stroke-width="140" stroke-dasharray="314" stroke-dashoffset="314" transform="rotate(-90 87 101)">
      
    </circle>
  </mask>
  <mask id="donut1-sweep" maskUnits="userSpaceOnUse" x="0" y="0" width="334" height="268">
    <circle cx="193" cy="84" r="22" fill="none" stroke="white" stroke-width="55" stroke-dasharray="138" stroke-dashoffset="138" transform="rotate(-90 193 84)">
      
    </circle>
  </mask>
  <mask id="donut2-sweep" maskUnits="userSpaceOnUse" x="0" y="0" width="334" height="268">
    <circle cx="239" cy="84" r="22" fill="none" stroke="white" stroke-width="55" stroke-dasharray="138" stroke-dashoffset="138" transform="rotate(-90 239 84)">
      
    </circle>
  </mask>
  <mask id="donut3-sweep" maskUnits="userSpaceOnUse" x="0" y="0" width="334" height="268">
    <circle cx="286" cy="84" r="22" fill="none" stroke="white" stroke-width="55" stroke-dasharray="138" stroke-dashoffset="138" transform="rotate(-90 286 84)">
      
    </circle>
  </mask>
</defs>
</svg>