<svg width="334" height="268" viewBox="0 0 334 268" fill="none" xmlns="http://www.w3.org/2000/svg">
<g clip-path="url(#clip0_521_4674)">
<path opacity="0.6" d="M203.86 115.28L57.15 115.1C56.6 115.1 56.15 114.65 56.15 114.1L56.21 64.58C56.21 64.03 56.66 63.58 57.21 63.58L203.92 63.76C204.47 63.76 204.92 64.21 204.92 64.76L204.86 114.28C204.86 114.83 204.41 115.28 203.86 115.28Z" fill="#00A58D" fill-opacity="0.1"></path>
<path opacity="0.6" d="M281.93 174.94L58.78 174.67C58 174.67 57.36 174.03 57.37 173.25L57.43 124.56C57.43 123.78 58.07 123.14 58.85 123.15L282 123.42C282.78 123.42 283.42 124.06 283.41 124.84L283.35 173.53C283.35 174.31 282.71 174.95 281.93 174.94Z" fill="#00A58D" fill-opacity="0.06"></path>
<path opacity="0.6" d="M282.68 191.89H58.08V195.85H282.68V191.89Z" fill="#00A58D" fill-opacity="0.1"></path>
<path opacity="0.6" d="M282.68 181.32H58.08V185.28H282.68V181.32Z" fill="#00A58D" fill-opacity="0.1"></path>
<path opacity="0.6" d="M249.14 202.46H58.08V206.42H249.14V202.46Z" fill="#00A58D" fill-opacity="0.1"></path>
<path opacity="0.6" d="M281.02 69.7L213.11 69.62C212.46 69.62 211.94 69.09 211.94 68.45C211.94 67.8 212.47 67.28 213.11 67.28L281.02 67.36C281.67 67.36 282.19 67.89 282.19 68.53C282.19 69.18 281.66 69.7 281.02 69.7Z" fill="#3BF7BF" fill-opacity="0.22"></path>
<path opacity="0.6" d="M281.01 76.73L213.1 76.65C212.45 76.65 211.93 76.12 211.93 75.48C211.93 74.83 212.46 74.31 213.1 74.31L281.01 74.39C281.66 74.39 282.18 74.92 282.18 75.56C282.18 76.21 281.65 76.73 281.01 76.73Z" fill="#3BF7BF" fill-opacity="0.22"></path>
<path opacity="0.6" d="M281 83.75L213.09 83.67C212.44 83.67 211.92 83.14 211.92 82.5C211.92 81.85 212.45 81.33 213.09 81.33L281 81.41C281.65 81.41 282.17 81.94 282.17 82.58C282.17 83.23 281.64 83.75 281 83.75Z" fill="#3BF7BF" fill-opacity="0.22"></path>
<path opacity="0.6" d="M281 90.78L213.09 90.7C212.44 90.7 211.92 90.17 211.92 89.53C211.92 88.88 212.45 88.36 213.09 88.36L281 88.44C281.65 88.44 282.17 88.97 282.17 89.61C282.17 90.26 281.64 90.78 281 90.78Z" fill="#3BF7BF" fill-opacity="0.22"></path>
<path opacity="0.6" d="M280.99 97.81L213.08 97.73C212.43 97.73 211.91 97.2 211.91 96.56C211.91 95.91 212.44 95.39 213.08 95.39L280.99 95.47C281.64 95.47 282.16 96 282.16 96.64C282.16 97.29 281.63 97.81 280.99 97.81Z" fill="#3BF7BF" fill-opacity="0.22"></path>
<path opacity="0.6" d="M280.98 104.83L213.07 104.75C212.42 104.75 211.9 104.22 211.9 103.58C211.9 102.93 212.43 102.41 213.07 102.41L280.98 102.49C281.63 102.49 282.15 103.02 282.15 103.66C282.15 104.31 281.62 104.83 280.98 104.83Z" fill="#3BF7BF" fill-opacity="0.22"></path>
<path opacity="0.6" d="M280.97 111.86L213.06 111.78C212.41 111.78 211.89 111.25 211.89 110.61C211.89 109.96 212.42 109.44 213.06 109.44L280.97 109.52C281.62 109.52 282.14 110.05 282.14 110.69C282.14 111.34 281.61 111.86 280.97 111.86Z" fill="#3BF7BF" fill-opacity="0.22"></path>
<path d="M56.2287 50.357L56.225 53.377C56.2245 53.8354 56.5956 54.2075 57.054 54.208L229.864 54.4192C230.322 54.4197 230.694 54.0486 230.695 53.5902L230.699 50.5702C230.699 50.1118 230.328 49.7397 229.87 49.7392L57.0597 49.528C56.6013 49.5275 56.2293 49.8986 56.2287 50.357Z" fill="#3BF7BF" fill-opacity="0.22"></path>
<path d="M264.965 19.217C267.83 19.2205 270.211 19.5554 272.107 20.2218L271.733 24.1773C269.456 24.1366 267.151 24.1148 264.817 24.1119C264.096 24.1111 263.612 24.1579 263.365 24.2525C263.119 24.347 262.995 24.5461 262.995 24.8497C262.994 25.1153 263.108 25.3431 263.335 25.5331C263.582 25.7042 264.037 25.9229 264.701 26.1894L268.256 27.6736C269.868 28.3776 271.006 29.1854 271.668 30.0969C272.331 31.0084 272.662 32.1947 272.66 33.6556C272.658 35.1545 272.41 36.3401 271.916 37.2122C271.422 38.0654 270.595 38.6905 269.438 39.0876C268.28 39.4656 266.676 39.6534 264.627 39.6509C262.066 39.6478 259.533 39.3221 257.03 38.674L257.405 34.3485C261.161 34.4479 263.542 34.4983 264.548 34.4995C265.326 34.5005 265.838 34.4537 266.085 34.3591C266.351 34.2646 266.484 34.0845 266.484 33.8188C266.485 33.5532 266.39 33.3349 266.2 33.1639C266.03 32.9929 265.679 32.8123 265.148 32.6219L261.251 30.9095C259.658 30.2056 258.53 29.4073 257.867 28.5148C257.204 27.6032 256.874 26.4265 256.876 24.9845C256.877 23.4856 257.135 22.3285 257.648 21.5133C258.18 20.6791 259.025 20.092 260.183 19.7519C261.341 19.3928 262.935 19.2145 264.965 19.217Z" fill="#00A58D" fill-opacity="0.1"></path>
<path d="M252.992 37.5875C252.915 38.0808 252.677 38.4789 252.279 38.782C251.88 39.0851 251.415 39.2363 250.883 39.2357L245.647 39.2293C245.116 39.2286 244.641 39.0762 244.224 38.7722C243.826 38.4681 243.599 38.0694 243.543 37.576L242.218 26.7311C242.143 26.1428 242.069 25.1846 241.994 23.8564L241.51 23.8558C241.433 25.1838 241.356 26.1514 241.279 26.7584L239.957 37.5716C239.899 38.0649 239.662 38.463 239.244 38.7661C238.845 39.0692 238.38 39.2204 237.849 39.2197L232.584 39.2133C232.052 39.2126 231.588 39.0603 231.19 38.7562C230.792 38.4522 230.555 38.0534 230.48 37.56L228.054 19.5703L234.145 19.5778L235.126 31.6176C235.2 32.9079 235.237 33.9989 235.236 34.8906L235.691 34.8912L235.806 34.1229C236.016 32.6242 236.131 31.7801 236.15 31.5904L237.472 21.4033C237.53 20.8721 237.748 20.436 238.128 20.0949C238.527 19.7539 239.002 19.5837 239.552 19.5844L243.963 19.5898C244.513 19.5905 244.978 19.7618 245.357 20.1038C245.736 20.4268 245.963 20.8634 246.039 21.4138L247.364 31.661C247.42 32.2303 247.561 33.3119 247.787 34.9059L248.242 34.9065C248.243 34.3752 248.291 33.3033 248.388 31.6907L249.371 19.5964L255.461 19.6038L252.992 37.5875Z" fill="#00A58D" fill-opacity="0.1"></path>
<path d="M226.393 34.5952L226.673 38.9499C225.42 39.1192 223.988 39.2218 222.375 39.2577C220.781 39.2937 218.808 39.3103 216.455 39.3074C215.108 39.3058 213.999 38.8965 213.127 38.0796C212.274 37.2437 211.848 36.1617 211.85 34.8336L211.863 23.905C211.865 22.5768 212.293 21.5053 213.148 20.6905C214.022 19.8568 215.132 19.4407 216.479 19.4424C218.832 19.4452 220.805 19.4666 222.399 19.5065C224.012 19.5464 225.444 19.6525 226.696 19.8248L226.406 24.1789L219.206 24.1701C218.845 24.1696 218.561 24.2641 218.352 24.4536C218.143 24.6431 218.038 24.8896 218.038 25.1932L218.035 27.1L225.378 27.109L225.373 31.2072L218.03 31.1983L218.027 33.5604C218.027 33.864 218.131 34.1108 218.34 34.3008C218.548 34.4908 218.833 34.586 219.193 34.5864L226.393 34.5952Z" fill="#00A58D" fill-opacity="0.1"></path>
<path d="M209.05 37.05C209.049 37.752 208.869 38.2831 208.508 38.6431C208.147 39.0032 207.615 39.1828 206.913 39.1819L204.551 39.179C203.963 39.1783 203.508 39.045 203.185 38.7789C202.882 38.5129 202.541 38.0477 202.163 37.3831L197.902 30.6329C197.429 29.7785 196.994 28.6586 196.597 27.273L196.398 27.2728C196.586 28.6012 196.679 29.7966 196.678 30.8591L196.668 39.1694L190.976 39.1625L190.997 21.6596C190.998 20.9576 191.179 20.4265 191.54 20.0665C191.901 19.7064 192.432 19.5268 193.134 19.5277L195.496 19.5306C196.084 19.5313 196.53 19.6646 196.833 19.9306C197.137 20.1966 197.487 20.6619 197.885 21.3265L201.975 27.7634C202.486 28.6748 202.988 29.7948 203.479 31.1235L203.679 31.1238C203.51 29.6816 203.426 28.4957 203.427 27.566L203.408 19.5402L209.072 19.5471L209.05 37.05Z" fill="#00A58D" fill-opacity="0.1"></path>
<path d="M182.482 27.8535L182.468 39.1521L177.915 39.1465L177.376 37.1252C176.844 37.7886 176.104 38.3569 175.154 38.8301C174.224 39.3033 173.152 39.5391 171.937 39.5376C170.401 39.5358 169.158 39.2022 168.21 38.537C167.263 37.8528 166.562 36.761 166.108 35.2615C165.655 33.7621 165.43 31.7791 165.433 29.3125C165.436 26.7701 165.732 24.7593 166.322 23.2801C166.931 21.8009 167.9 20.7396 169.229 20.0961C170.577 19.4337 172.399 19.1039 174.695 19.1067C176.231 19.1086 177.512 19.1766 178.536 19.3106C179.561 19.4257 180.604 19.6357 181.666 19.9406L181.205 24.3798L180.352 24.3787C177.961 24.3379 176.083 24.3166 174.717 24.3149C173.958 24.314 173.379 24.4556 172.98 24.7397C172.6 25.0049 172.325 25.4978 172.153 26.2186C172 26.9204 171.923 27.9544 171.921 29.3205C171.92 30.6676 171.994 31.6922 172.145 32.3944C172.296 33.0966 172.542 33.5902 172.884 33.8753C173.244 34.1413 173.756 34.2748 174.42 34.2756C175.084 34.2764 175.796 34.2203 176.555 34.1074L176.562 27.8462L182.482 27.8535Z" fill="#3BF7BF" fill-opacity="0.22"></path>
<path d="M163.053 36.9938C163.052 37.6958 162.871 38.2269 162.51 38.5869C162.149 38.947 161.618 39.1266 160.916 39.1257L158.554 39.1228C157.966 39.1221 157.51 38.9888 157.188 38.7227C156.885 38.4567 156.544 37.9915 156.165 37.3269L151.905 30.5767C151.431 29.7223 150.996 28.6024 150.599 27.2168L150.4 27.2166C150.588 28.545 150.682 29.7404 150.68 30.8029L150.67 39.1132L144.978 39.1063L145 21.6034C145.001 20.9014 145.181 20.3703 145.542 20.0103C145.903 19.6502 146.435 19.4706 147.137 19.4715L149.499 19.4744C150.087 19.4751 150.533 19.6084 150.836 19.8744C151.139 20.1404 151.49 20.6057 151.887 21.2703L155.978 27.7072C156.489 28.6186 156.99 29.7386 157.482 31.0673L157.681 31.0676C157.512 29.6254 157.428 28.4395 157.43 27.5098L157.411 19.484L163.074 19.491L163.053 36.9938Z" fill="#3BF7BF" fill-opacity="0.22"></path>
<path d="M141.982 39.1026L135.863 39.0951L135.887 19.4577L142.006 19.4652L141.982 39.1026Z" fill="#3BF7BF" fill-opacity="0.22"></path>
<path d="M124.299 19.159C126.633 19.1618 128.444 19.4581 129.734 20.0479C131.042 20.6377 131.99 21.6539 132.576 23.0966C133.163 24.5393 133.454 26.5982 133.451 29.2735C133.448 31.9487 133.151 34.007 132.561 35.4482C131.971 36.8895 131.021 37.9034 129.711 38.49C128.42 39.0765 126.608 39.3684 124.274 39.3656C121.428 39.3621 118.63 39.2638 115.879 39.0707L115.903 19.4333C119.243 19.2477 122.041 19.1562 124.299 19.159ZM124.28 34.8974C125.001 34.8982 125.542 34.7471 125.903 34.444C126.283 34.1219 126.549 33.572 126.702 32.7943C126.854 31.9976 126.932 30.8213 126.934 29.2655C126.935 27.7097 126.861 26.5427 126.71 25.7647C126.559 24.9676 126.294 24.417 125.915 24.113C125.555 23.79 125.015 23.6281 124.294 23.6272L122.074 23.6245L122.06 34.8662C122.515 34.8857 123.255 34.8961 124.28 34.8974Z" fill="#3BF7BF" fill-opacity="0.22"></path>
<path d="M107.386 34.8198L102.007 34.8132L101.005 39.0525L94.7158 39.0449L99.8321 21.0075C99.9655 20.5333 100.222 20.1541 100.602 19.87C100.982 19.5669 101.418 19.4156 101.912 19.4162L107.518 19.4231C108.012 19.4237 108.448 19.576 108.827 19.88C109.206 20.1651 109.462 20.5449 109.594 21.0194L114.666 39.0692L108.377 39.0615L107.386 34.8198ZM106.395 30.4927L105.432 26.2794C105.263 25.3874 105.15 24.6379 105.094 24.0306L104.325 24.0297C104.21 24.9213 104.095 25.6706 103.981 26.2776L103.008 30.4885L106.395 30.4927Z" fill="#3BF7BF" fill-opacity="0.22"></path>
<path d="M94.6081 39.0447L88.1477 39.0368L86.8741 33.201C86.7609 32.6696 86.5811 32.3184 86.3347 32.1473C86.1072 31.9573 85.7279 31.862 85.1966 31.8613L83.2898 31.859L83.281 39.0309L77.2191 39.0235L77.2431 19.3861C78.4765 19.2738 79.6434 19.1993 80.7439 19.1627C81.8634 19.1261 83.4761 19.1091 85.5822 19.1117C87.5744 19.1141 89.1679 19.3058 90.3628 19.6867C91.5576 20.0487 92.4391 20.6664 93.0073 21.5399C93.5754 22.3944 93.8586 23.5805 93.8567 25.0984C93.8533 27.9444 92.5232 29.4986 89.8666 29.761L89.8664 29.9317C91.6496 30.1616 92.7204 31.1875 93.0786 33.0093L94.6081 39.0447ZM85.4296 27.5072C86.3214 27.5083 86.9097 27.3762 87.1946 27.1109C87.4985 26.8457 87.651 26.3051 87.652 25.4893C87.653 24.6734 87.5018 24.1325 87.1986 23.8665C86.9143 23.6005 86.3263 23.467 85.4346 23.4659L83.3001 23.4633L83.2951 27.5046L85.4296 27.5072Z" fill="#3BF7BF" fill-opacity="0.22"></path>
<path d="M75.4717 23.9945L69.9789 23.9877L69.9605 39.0146L63.7847 39.0071L63.8031 23.9802L58.3103 23.9735L58.3159 19.363L75.4773 19.3839L75.4717 23.9945Z" fill="#3BF7BF" fill-opacity="0.22"></path>
<path d="M252.412 0.00519252L252.405 5.85518L282.845 5.89237L282.852 0.042382L252.412 0.00519252Z" fill="#3BF7BF" fill-opacity="0.22"></path>
</g>
<path d="M206.796 243.768C205.137 233.031 203.444 222.262 201.038 211.657C195.579 187.598 191.599 171.01 160.898 174.024C138.511 176.22 135.732 198.413 132.043 215.761C130.239 224.24 128.303 233.874 127.289 242.435C127.02 244.697 126.511 245.992 128.328 247.875C132.894 252.608 140.973 243.965 145.367 244.199C148.484 244.368 150.095 246.884 152.639 247.925C160.44 251.12 162.133 244.907 167.182 245.005C170.452 245.071 171.64 247.579 174.427 248.348C182.207 250.495 183.943 243.94 189.419 244.175C191.321 244.257 192.68 245.717 194.313 246.486C198.156 248.303 203.205 250.984 205.868 247.53C206.697 246.457 206.992 245.083 206.787 243.763L206.796 243.768ZM166.938 221.345C153.981 221.345 143.478 212.221 143.478 200.966C143.478 189.712 153.981 180.587 166.938 180.587C179.895 180.587 190.398 189.712 190.398 200.966C190.398 212.221 179.895 221.345 166.938 221.345Z" fill="url(#paint0_linear_521_4674)"></path>
<path d="M143.478 200.966C143.478 189.712 153.981 180.587 166.938 180.587" stroke="url(#paint1_linear_521_4674)"></path>
<path opacity="0.4" d="M140.152 267.415C143.261 267.415 145.782 264.994 145.782 262.007C145.782 259.02 143.261 256.599 140.152 256.599C137.042 256.599 134.521 259.02 134.521 262.007C134.521 264.994 137.042 267.415 140.152 267.415Z" fill="#3BF7BF"></path>
<path opacity="0.5" d="M166.426 267.415C169.536 267.415 172.056 264.994 172.056 262.007C172.056 259.02 169.536 256.599 166.426 256.599C163.316 256.599 160.796 259.02 160.796 262.007C160.796 264.994 163.316 267.415 166.426 267.415Z" fill="#3BF7BF"></path>
<path d="M192.703 267.415C195.812 267.415 198.333 264.994 198.333 262.007C198.333 259.02 195.812 256.599 192.703 256.599C189.593 256.599 187.072 259.02 187.072 262.007C187.072 264.994 189.593 267.415 192.703 267.415Z" fill="#3BF7BF"></path>
<path d="M171.926 207.654V193.358H175.562V207.654H171.926Z" fill="#3BF7BF"></path>
<path d="M156.372 207.654L161.187 193.358H164.515V196.469H163.376L160.196 207.654H156.372ZM159.185 204.523L159.998 201.898H166.824L167.636 204.523H159.185ZM166.635 207.654L163.455 196.469V193.358H165.645L170.46 207.654H166.635Z" fill="#3BF7BF"></path>
<path d="M127.289 242.435C127.02 244.697 126.511 245.992 128.328 247.875C132.894 252.608 140.973 243.965 145.367 244.199" stroke="url(#paint2_linear_521_4674)"></path>
<path d="M201.038 211.657C195.579 187.598 191.599 171.01 160.898 174.024" stroke="url(#paint3_linear_521_4674)"></path>
<defs>
<linearGradient id="paint0_linear_521_4674" x1="166.932" y1="173.671" x2="166.932" y2="249.294" gradientUnits="userSpaceOnUse">
<stop stop-color="#3BF7BF" stop-opacity="0.16"></stop>
<stop offset="1" stop-color="#5DFAC9"></stop>
</linearGradient>
<linearGradient id="paint1_linear_521_4674" x1="144.38" y1="201.872" x2="169.117" y2="182.12" gradientUnits="userSpaceOnUse">
<stop stop-color="#3BF7BF"></stop>
<stop offset="1" stop-color="#239170" stop-opacity="0"></stop>
</linearGradient>
<linearGradient id="paint2_linear_521_4674" x1="123.384" y1="244.641" x2="135.814" y2="255.162" gradientUnits="userSpaceOnUse">
<stop stop-color="#3BF7BF"></stop>
<stop offset="1" stop-color="#239170" stop-opacity="0"></stop>
</linearGradient>
<linearGradient id="paint3_linear_521_4674" x1="180.968" y1="173.671" x2="201.147" y2="211.462" gradientUnits="userSpaceOnUse">
<stop stop-color="#3BF7BF"></stop>
<stop offset="1" stop-color="#239170" stop-opacity="0"></stop>
</linearGradient>
<clipPath id="clip0_521_4674">
<rect width="228" height="207" fill="white" transform="translate(56 3.05176e-05)"></rect>
</clipPath>
</defs>
</svg>